<?xml version="1.0" encoding="UTF-8" standalone="no"?>
<!DOCTYPE svg PUBLIC "-//W3C//DTD SVG 1.1//EN" "http://www.w3.org/Graphics/SVG/1.1/DTD/svg11.dtd">
<!-- Created with matplotlib (http://matplotlib.org/) -->
<svg height="360pt" version="1.1" viewBox="0 0 544 360" width="544pt" xmlns="http://www.w3.org/2000/svg" xmlns:xlink="http://www.w3.org/1999/xlink">
 <defs>
  <style type="text/css">
*{stroke-linecap:butt;stroke-linejoin:round;}
  </style>
 </defs>
 <g id="figure_1">
  <g id="patch_1">
   <path d="M 0 360  L 544 360  L 544 0  L 0 0  z " style="fill:#ffffff;"/>
  </g>
  <g id="axes_1">
   <g id="patch_2">
    <path d="M 76.590625 324.8  L 508.675 324.8  L 508.675 35.2  L 76.590625 35.2  z " style="fill:#ffffff;"/>
   </g>
   <g id="line2d_1">
    <path clip-path="url(#p36e2ed4143)" d="M 82.763259 279.988211  L 85.849576 282.731789  L 88.935893 289.438316  L 92.02221 294.925474  L 95.108527 291.877053  L 98.194844 283.341474  L 101.281161 283.341474  L 104.367478 278.768842  L 107.453795 277.549474  L 113.626429 290.962526  L 116.712746 286.999579  L 119.799062 284.865684  L 122.885379 278.768842  L 125.971696 273.891368  L 129.058013 268.404211  L 132.14433 262.307368  L 135.230647 259.258947  L 138.316964 264.746105  L 141.403281 267.794526  L 144.489598 276.634947  L 147.575915 283.646316  L 150.662232 287.609263  L 153.748549 291.267368  L 156.834866 293.401263  L 159.921183 292.486737  L 163.0075 296.449684  L 166.093817 301.632  L 169.180134 301.327158  L 172.266451 300.412632  L 175.352768 292.181895  L 178.439085 282.122105  L 181.525402 280.902737  L 184.611719 283.341474  L 187.698036 281.512421  L 190.784353 285.780211  L 193.87067 290.352842  L 200.043304 272.976842  L 203.129621 267.489684  L 206.215937 261.697684  L 209.302254 257.125053  L 212.388571 253.771789  L 215.474888 249.504  L 218.561205 246.150737  L 221.647522 251.028211  L 224.733839 247.370105  L 227.820156 247.065263  L 230.906473 245.236211  L 233.99279 251.028211  L 237.079107 241.882947  L 240.165424 244.931368  L 243.251741 247.370105  L 246.338058 242.187789  L 249.424375 230.298947  L 252.510692 227.555368  L 258.683326 211.398737  L 261.769643 212.008421  L 264.85596 211.093895  L 267.942277 205.606737  L 271.028594 208.045474  L 274.114911 214.142316  L 277.201228 215.361684  L 280.287545 220.544  L 283.373862 229.384421  L 286.460179 237.615158  L 289.546496 237.005474  L 292.632812 237.005474  L 295.719129 229.079579  L 298.805446 229.384421  L 301.891763 226.945684  L 304.97808 236.395789  L 308.064397 237.005474  L 311.150714 239.139368  L 314.237031 234.261895  L 317.323348 228.774737  L 320.409665 218.410105  L 323.495982 215.056842  L 326.582299 215.361684  L 329.668616 224.811789  L 332.754933 231.213474  L 335.84125 233.957053  L 338.927567 237.615158  L 342.013884 244.321684  L 345.100201 238.834526  L 348.186518 235.786105  L 351.272835 240.358737  L 354.359152 247.065263  L 357.445469 242.187789  L 360.531786 247.979789  L 363.618103 248.894316  L 366.70442 250.723368  L 369.790737 241.578105  L 372.877054 244.016842  L 375.963371 235.481263  L 379.049687 228.774737  L 382.136004 210.484211  L 385.222321 212.313263  L 388.308638 204.997053  L 391.394955 206.216421  L 394.481272 211.398737  L 397.567589 219.324632  L 400.653906 212.922947  L 403.740223 209.264842  L 406.82654 201.643789  L 409.912857 185.792  L 412.999174 176.951579  L 416.085491 181.219368  L 419.171808 187.011368  L 425.344442 182.743579  L 428.430759 186.706526  L 431.517076 174.208  L 434.603393 158.051368  L 437.68971 154.088421  L 440.776027 156.527158  L 443.862344 145.857684  L 446.948661 140.370526  L 450.034978 140.065684  L 453.121295 134.578526  L 456.207612 124.518737  L 459.293929 119.946105  L 462.380246 116.897684  L 465.466562 119.641263  L 471.639196 117.812211  L 474.725513 120.250947  L 477.81183 121.775158  L 480.898147 118.421895  L 483.984464 112.325053  L 487.070781 104.094316  L 490.157098 86.718316  L 493.243415 76.048842  L 496.329732 68.732632  L 496.329732 68.732632  " style="fill:none;stroke:#ff0000;stroke-linecap:square;stroke-width:2.5;"/>
   </g>
   <g id="line2d_2">
    <path clip-path="url(#p36e2ed4143)" d="M 82.763259 241.578105  L 85.849576 247.065263  L 88.935893 253.771789  L 92.02221 262.612211  L 95.108527 265.050947  L 98.194844 262.002526  L 101.281161 265.050947  L 104.367478 264.441263  L 107.453795 260.478316  L 110.540112 262.002526  L 113.626429 267.794526  L 116.712746 262.612211  L 119.799062 257.125053  L 122.885379 254.076632  L 125.971696 256.515368  L 129.058013 253.771789  L 132.14433 251.637895  L 135.230647 256.820211  L 138.316964 262.612211  L 141.403281 266.270316  L 144.489598 276.330105  L 147.575915 281.207579  L 150.662232 281.817263  L 153.748549 283.951158  L 156.834866 284.560842  L 159.921183 284.560842  L 163.0075 290.048  L 166.093817 297.364211  L 169.180134 295.230316  L 172.266451 290.657684  L 175.352768 279.378526  L 178.439085 269.928421  L 181.525402 265.050947  L 184.611719 267.794526  L 187.698036 265.660632  L 190.784353 268.099368  L 193.87067 271.757474  L 196.956987 270.842947  L 200.043304 269.318737  L 203.129621 272.367158  L 206.215937 277.244632  L 209.302254 279.073684  L 212.388571 276.939789  L 215.474888 276.939789  L 218.561205 276.634947  L 221.647522 277.244632  L 224.733839 276.939789  L 227.820156 277.854316  L 230.906473 277.549474  L 233.99279 279.073684  L 237.079107 276.025263  L 240.165424 276.634947  L 243.251741 278.159158  L 246.338058 275.415579  L 252.510692 267.489684  L 255.597009 255.600842  L 258.683326 242.187789  L 261.769643 236.090947  L 264.85596 230.298947  L 267.942277 221.458526  L 271.028594 221.153684  L 274.114911 231.213474  L 277.201228 235.786105  L 280.287545 241.578105  L 283.373862 251.942737  L 286.460179 261.088  L 289.546496 261.392842  L 292.632812 258.344421  L 295.719129 254.991158  L 298.805446 256.820211  L 301.891763 256.515368  L 304.97808 255.905684  L 308.064397 253.162105  L 311.150714 251.333053  L 314.237031 245.541053  L 317.323348 243.102316  L 320.409665 237.310316  L 323.495982 241.273263  L 326.582299 240.968421  L 329.668616 245.236211  L 332.754933 244.016842  L 335.84125 247.370105  L 338.927567 247.370105  L 342.013884 249.504  L 345.100201 238.834526  L 348.186518 233.347368  L 351.272835 231.823158  L 357.445469 213.227789  L 360.531786 216.885895  L 363.618103 219.324632  L 366.70442 218.410105  L 369.790737 218.105263  L 372.877054 221.458526  L 375.963371 215.056842  L 379.049687 204.082526  L 382.136004 196.156632  L 385.222321 196.461474  L 388.308638 188.535579  L 391.394955 187.316211  L 394.481272 191.584  L 397.567589 192.193684  L 400.653906 186.401684  L 403.740223 184.572632  L 406.82654 184.267789  L 409.912857 180.304842  L 412.999174 175.122526  L 416.085491 177.866105  L 419.171808 182.133895  L 422.258125 183.048421  L 425.344442 184.877474  L 428.430759 185.487158  L 431.517076 182.743579  L 434.603393 175.732211  L 437.68971 174.512842  L 440.776027 174.817684  L 443.862344 173.293474  L 446.948661 169.330526  L 450.034978 169.940211  L 453.121295 166.586947  L 456.207612 160.185263  L 459.293929 159.880421  L 462.380246 162.624  L 465.466562 165.977263  L 468.552879 161.099789  L 471.639196 160.490105  L 474.725513 160.490105  L 477.81183 159.880421  L 480.898147 155.307789  L 483.984464 155.612632  L 487.070781 153.173895  L 490.157098 145.248  L 493.243415 138.846316  L 496.329732 135.188211  L 496.329732 135.188211  " style="fill:none;stroke:#0000ff;stroke-linecap:square;stroke-width:2.5;"/>
   </g>
   <g id="line2d_3">
    <path clip-path="url(#p36e2ed4143)" d="M 76.590625 282.122105  L 79.676942 263.831579  L 82.763259 268.404211  L 85.849576 283.646316  L 88.935893 301.936842  L 92.02221 295.84  L 95.108527 297.364211  L 98.194844 295.84  L 101.281161 268.404211  L 104.367478 259.258947  L 107.453795 295.84  L 110.540112 274.501053  L 113.626429 289.743158  L 116.712746 301.936842  L 119.799062 292.791579  L 122.885379 276.025263  L 125.971696 263.831579  L 129.058013 259.258947  L 132.14433 277.549474  L 135.230647 265.355789  L 138.316964 245.541053  L 141.403281 248.589474  L 144.489598 286.694737  L 147.575915 292.791579  L 150.662232 309.557895  L 153.748549 280.597895  L 156.834866 268.404211  L 159.921183 304.985263  L 163.0075 303.461053  L 166.093817 304.985263  L 169.180134 300.412632  L 172.266451 294.315789  L 175.352768 303.461053  L 178.439085 298.888421  L 181.525402 263.831579  L 184.611719 250.113684  L 187.698036 288.218947  L 190.784353 315.654737  L 193.87067 289.743158  L 196.956987 285.170526  L 200.043304 272.976842  L 203.129621 245.541053  L 206.215937 271.452632  L 209.302254 262.307368  L 215.474888 250.113684  L 218.561205 228.774737  L 221.647522 250.113684  L 224.733839 245.541053  L 227.820156 280.597895  L 230.906473 231.823158  L 233.99279 227.250526  L 237.079107 240.968421  L 240.165424 274.501053  L 243.251741 234.871579  L 246.338058 247.065263  L 249.424375 239.444211  L 252.510692 215.056842  L 255.597009 215.056842  L 258.683326 221.153684  L 261.769643 207.435789  L 264.85596 198.290526  L 267.942277 218.105263  L 271.028594 210.484211  L 274.114911 193.717895  L 277.201228 219.629474  L 280.287545 228.774737  L 283.373862 224.202105  L 286.460179 236.395789  L 289.546496 237.92  L 292.632812 260.783158  L 295.719129 225.726316  L 298.805446 224.202105  L 301.891763 196.766316  L 304.97808 239.444211  L 308.064397 248.589474  L 311.150714 272.976842  L 314.237031 227.250526  L 317.323348 207.435789  L 320.409665 215.056842  L 323.495982 221.153684  L 326.582299 221.153684  L 329.668616 210.484211  L 332.754933 208.96  L 335.84125 262.307368  L 338.927567 253.162105  L 342.013884 234.871579  L 345.100201 228.774737  L 348.186518 242.492632  L 351.272835 234.871579  L 354.359152 237.92  L 357.445469 257.734737  L 360.531786 262.307368  L 363.618103 218.105263  L 366.70442 263.831579  L 369.790737 242.492632  L 372.877054 266.88  L 375.963371 216.581053  L 379.049687 230.298947  L 382.136004 221.153684  L 385.222321 208.96  L 388.308638 175.427368  L 391.394955 225.726316  L 394.481272 193.717895  L 397.567589 227.250526  L 400.653906 234.871579  L 403.740223 215.056842  L 406.82654 193.717895  L 409.912857 175.427368  L 412.999174 189.145263  L 416.085491 155.612632  L 419.171808 170.854737  L 422.258125 215.056842  L 425.344442 204.387368  L 428.430759 178.475789  L 431.517076 144.943158  L 434.603393 190.669474  L 437.68971 152.564211  L 440.776027 123.604211  L 443.862344 158.661053  L 446.948661 157.136842  L 450.034978 137.322105  L 453.121295 125.128421  L 456.207612 122.08  L 459.293929 131.225263  L 462.380246 106.837895  L 465.466562 114.458947  L 468.552879 109.886316  L 471.639196 135.797895  L 474.725513 126.652632  L 477.81183 102.265263  L 480.898147 126.652632  L 483.984464 117.507368  L 487.070781 119.031579  L 490.157098 96.168421  L 493.243415 61.111579  L 496.329732 39.772632  L 499.416049 64.16  L 502.502366 82.450526  L 502.502366 82.450526  " style="fill:none;stroke:#ff0000;stroke-linecap:square;stroke-width:0.5;"/>
    <defs>
     <path d="M 0 2  C 0.530406 2 1.03916 1.789267 1.414214 1.414214  C 1.789267 1.03916 2 0.530406 2 0  C 2 -0.530406 1.789267 -1.03916 1.414214 -1.414214  C 1.03916 -1.789267 0.530406 -2 0 -2  C -0.530406 -2 -1.03916 -1.789267 -1.414214 -1.414214  C -1.789267 -1.03916 -2 -0.530406 -2 0  C -2 0.530406 -1.789267 1.03916 -1.414214 1.414214  C -1.03916 1.789267 -0.530406 2 0 2  z " id="m9ebb1e0749" style="stroke:#000000;stroke-width:0.5;"/>
    </defs>
    <g clip-path="url(#p36e2ed4143)">
     <use style="fill:#ff0000;stroke:#000000;stroke-width:0.5;" x="76.590625" xlink:href="#m9ebb1e0749" y="282.122105"/>
     <use style="fill:#ff0000;stroke:#000000;stroke-width:0.5;" x="79.676942" xlink:href="#m9ebb1e0749" y="263.831579"/>
     <use style="fill:#ff0000;stroke:#000000;stroke-width:0.5;" x="82.763259" xlink:href="#m9ebb1e0749" y="268.404211"/>
     <use style="fill:#ff0000;stroke:#000000;stroke-width:0.5;" x="85.849576" xlink:href="#m9ebb1e0749" y="283.646316"/>
     <use style="fill:#ff0000;stroke:#000000;stroke-width:0.5;" x="88.935893" xlink:href="#m9ebb1e0749" y="301.936842"/>
     <use style="fill:#ff0000;stroke:#000000;stroke-width:0.5;" x="92.02221" xlink:href="#m9ebb1e0749" y="295.84"/>
     <use style="fill:#ff0000;stroke:#000000;stroke-width:0.5;" x="95.108527" xlink:href="#m9ebb1e0749" y="297.364211"/>
     <use style="fill:#ff0000;stroke:#000000;stroke-width:0.5;" x="98.194844" xlink:href="#m9ebb1e0749" y="295.84"/>
     <use style="fill:#ff0000;stroke:#000000;stroke-width:0.5;" x="101.281161" xlink:href="#m9ebb1e0749" y="268.404211"/>
     <use style="fill:#ff0000;stroke:#000000;stroke-width:0.5;" x="104.367478" xlink:href="#m9ebb1e0749" y="259.258947"/>
     <use style="fill:#ff0000;stroke:#000000;stroke-width:0.5;" x="107.453795" xlink:href="#m9ebb1e0749" y="295.84"/>
     <use style="fill:#ff0000;stroke:#000000;stroke-width:0.5;" x="110.540112" xlink:href="#m9ebb1e0749" y="274.501053"/>
     <use style="fill:#ff0000;stroke:#000000;stroke-width:0.5;" x="113.626429" xlink:href="#m9ebb1e0749" y="289.743158"/>
     <use style="fill:#ff0000;stroke:#000000;stroke-width:0.5;" x="116.712746" xlink:href="#m9ebb1e0749" y="301.936842"/>
     <use style="fill:#ff0000;stroke:#000000;stroke-width:0.5;" x="119.799062" xlink:href="#m9ebb1e0749" y="292.791579"/>
     <use style="fill:#ff0000;stroke:#000000;stroke-width:0.5;" x="122.885379" xlink:href="#m9ebb1e0749" y="276.025263"/>
     <use style="fill:#ff0000;stroke:#000000;stroke-width:0.5;" x="125.971696" xlink:href="#m9ebb1e0749" y="263.831579"/>
     <use style="fill:#ff0000;stroke:#000000;stroke-width:0.5;" x="129.058013" xlink:href="#m9ebb1e0749" y="259.258947"/>
     <use style="fill:#ff0000;stroke:#000000;stroke-width:0.5;" x="132.14433" xlink:href="#m9ebb1e0749" y="277.549474"/>
     <use style="fill:#ff0000;stroke:#000000;stroke-width:0.5;" x="135.230647" xlink:href="#m9ebb1e0749" y="265.355789"/>
     <use style="fill:#ff0000;stroke:#000000;stroke-width:0.5;" x="138.316964" xlink:href="#m9ebb1e0749" y="245.541053"/>
     <use style="fill:#ff0000;stroke:#000000;stroke-width:0.5;" x="141.403281" xlink:href="#m9ebb1e0749" y="248.589474"/>
     <use style="fill:#ff0000;stroke:#000000;stroke-width:0.5;" x="144.489598" xlink:href="#m9ebb1e0749" y="286.694737"/>
     <use style="fill:#ff0000;stroke:#000000;stroke-width:0.5;" x="147.575915" xlink:href="#m9ebb1e0749" y="292.791579"/>
     <use style="fill:#ff0000;stroke:#000000;stroke-width:0.5;" x="150.662232" xlink:href="#m9ebb1e0749" y="309.557895"/>
     <use style="fill:#ff0000;stroke:#000000;stroke-width:0.5;" x="153.748549" xlink:href="#m9ebb1e0749" y="280.597895"/>
     <use style="fill:#ff0000;stroke:#000000;stroke-width:0.5;" x="156.834866" xlink:href="#m9ebb1e0749" y="268.404211"/>
     <use style="fill:#ff0000;stroke:#000000;stroke-width:0.5;" x="159.921183" xlink:href="#m9ebb1e0749" y="304.985263"/>
     <use style="fill:#ff0000;stroke:#000000;stroke-width:0.5;" x="163.0075" xlink:href="#m9ebb1e0749" y="303.461053"/>
     <use style="fill:#ff0000;stroke:#000000;stroke-width:0.5;" x="166.093817" xlink:href="#m9ebb1e0749" y="304.985263"/>
     <use style="fill:#ff0000;stroke:#000000;stroke-width:0.5;" x="169.180134" xlink:href="#m9ebb1e0749" y="300.412632"/>
     <use style="fill:#ff0000;stroke:#000000;stroke-width:0.5;" x="172.266451" xlink:href="#m9ebb1e0749" y="294.315789"/>
     <use style="fill:#ff0000;stroke:#000000;stroke-width:0.5;" x="175.352768" xlink:href="#m9ebb1e0749" y="303.461053"/>
     <use style="fill:#ff0000;stroke:#000000;stroke-width:0.5;" x="178.439085" xlink:href="#m9ebb1e0749" y="298.888421"/>
     <use style="fill:#ff0000;stroke:#000000;stroke-width:0.5;" x="181.525402" xlink:href="#m9ebb1e0749" y="263.831579"/>
     <use style="fill:#ff0000;stroke:#000000;stroke-width:0.5;" x="184.611719" xlink:href="#m9ebb1e0749" y="250.113684"/>
     <use style="fill:#ff0000;stroke:#000000;stroke-width:0.5;" x="187.698036" xlink:href="#m9ebb1e0749" y="288.218947"/>
     <use style="fill:#ff0000;stroke:#000000;stroke-width:0.5;" x="190.784353" xlink:href="#m9ebb1e0749" y="315.654737"/>
     <use style="fill:#ff0000;stroke:#000000;stroke-width:0.5;" x="193.87067" xlink:href="#m9ebb1e0749" y="289.743158"/>
     <use style="fill:#ff0000;stroke:#000000;stroke-width:0.5;" x="196.956987" xlink:href="#m9ebb1e0749" y="285.170526"/>
     <use style="fill:#ff0000;stroke:#000000;stroke-width:0.5;" x="200.043304" xlink:href="#m9ebb1e0749" y="272.976842"/>
     <use style="fill:#ff0000;stroke:#000000;stroke-width:0.5;" x="203.129621" xlink:href="#m9ebb1e0749" y="245.541053"/>
     <use style="fill:#ff0000;stroke:#000000;stroke-width:0.5;" x="206.215937" xlink:href="#m9ebb1e0749" y="271.452632"/>
     <use style="fill:#ff0000;stroke:#000000;stroke-width:0.5;" x="209.302254" xlink:href="#m9ebb1e0749" y="262.307368"/>
     <use style="fill:#ff0000;stroke:#000000;stroke-width:0.5;" x="212.388571" xlink:href="#m9ebb1e0749" y="256.210526"/>
     <use style="fill:#ff0000;stroke:#000000;stroke-width:0.5;" x="215.474888" xlink:href="#m9ebb1e0749" y="250.113684"/>
     <use style="fill:#ff0000;stroke:#000000;stroke-width:0.5;" x="218.561205" xlink:href="#m9ebb1e0749" y="228.774737"/>
     <use style="fill:#ff0000;stroke:#000000;stroke-width:0.5;" x="221.647522" xlink:href="#m9ebb1e0749" y="250.113684"/>
     <use style="fill:#ff0000;stroke:#000000;stroke-width:0.5;" x="224.733839" xlink:href="#m9ebb1e0749" y="245.541053"/>
     <use style="fill:#ff0000;stroke:#000000;stroke-width:0.5;" x="227.820156" xlink:href="#m9ebb1e0749" y="280.597895"/>
     <use style="fill:#ff0000;stroke:#000000;stroke-width:0.5;" x="230.906473" xlink:href="#m9ebb1e0749" y="231.823158"/>
     <use style="fill:#ff0000;stroke:#000000;stroke-width:0.5;" x="233.99279" xlink:href="#m9ebb1e0749" y="227.250526"/>
     <use style="fill:#ff0000;stroke:#000000;stroke-width:0.5;" x="237.079107" xlink:href="#m9ebb1e0749" y="240.968421"/>
     <use style="fill:#ff0000;stroke:#000000;stroke-width:0.5;" x="240.165424" xlink:href="#m9ebb1e0749" y="274.501053"/>
     <use style="fill:#ff0000;stroke:#000000;stroke-width:0.5;" x="243.251741" xlink:href="#m9ebb1e0749" y="234.871579"/>
     <use style="fill:#ff0000;stroke:#000000;stroke-width:0.5;" x="246.338058" xlink:href="#m9ebb1e0749" y="247.065263"/>
     <use style="fill:#ff0000;stroke:#000000;stroke-width:0.5;" x="249.424375" xlink:href="#m9ebb1e0749" y="239.444211"/>
     <use style="fill:#ff0000;stroke:#000000;stroke-width:0.5;" x="252.510692" xlink:href="#m9ebb1e0749" y="215.056842"/>
     <use style="fill:#ff0000;stroke:#000000;stroke-width:0.5;" x="255.597009" xlink:href="#m9ebb1e0749" y="215.056842"/>
     <use style="fill:#ff0000;stroke:#000000;stroke-width:0.5;" x="258.683326" xlink:href="#m9ebb1e0749" y="221.153684"/>
     <use style="fill:#ff0000;stroke:#000000;stroke-width:0.5;" x="261.769643" xlink:href="#m9ebb1e0749" y="207.435789"/>
     <use style="fill:#ff0000;stroke:#000000;stroke-width:0.5;" x="264.85596" xlink:href="#m9ebb1e0749" y="198.290526"/>
     <use style="fill:#ff0000;stroke:#000000;stroke-width:0.5;" x="267.942277" xlink:href="#m9ebb1e0749" y="218.105263"/>
     <use style="fill:#ff0000;stroke:#000000;stroke-width:0.5;" x="271.028594" xlink:href="#m9ebb1e0749" y="210.484211"/>
     <use style="fill:#ff0000;stroke:#000000;stroke-width:0.5;" x="274.114911" xlink:href="#m9ebb1e0749" y="193.717895"/>
     <use style="fill:#ff0000;stroke:#000000;stroke-width:0.5;" x="277.201228" xlink:href="#m9ebb1e0749" y="219.629474"/>
     <use style="fill:#ff0000;stroke:#000000;stroke-width:0.5;" x="280.287545" xlink:href="#m9ebb1e0749" y="228.774737"/>
     <use style="fill:#ff0000;stroke:#000000;stroke-width:0.5;" x="283.373862" xlink:href="#m9ebb1e0749" y="224.202105"/>
     <use style="fill:#ff0000;stroke:#000000;stroke-width:0.5;" x="286.460179" xlink:href="#m9ebb1e0749" y="236.395789"/>
     <use style="fill:#ff0000;stroke:#000000;stroke-width:0.5;" x="289.546496" xlink:href="#m9ebb1e0749" y="237.92"/>
     <use style="fill:#ff0000;stroke:#000000;stroke-width:0.5;" x="292.632812" xlink:href="#m9ebb1e0749" y="260.783158"/>
     <use style="fill:#ff0000;stroke:#000000;stroke-width:0.5;" x="295.719129" xlink:href="#m9ebb1e0749" y="225.726316"/>
     <use style="fill:#ff0000;stroke:#000000;stroke-width:0.5;" x="298.805446" xlink:href="#m9ebb1e0749" y="224.202105"/>
     <use style="fill:#ff0000;stroke:#000000;stroke-width:0.5;" x="301.891763" xlink:href="#m9ebb1e0749" y="196.766316"/>
     <use style="fill:#ff0000;stroke:#000000;stroke-width:0.5;" x="304.97808" xlink:href="#m9ebb1e0749" y="239.444211"/>
     <use style="fill:#ff0000;stroke:#000000;stroke-width:0.5;" x="308.064397" xlink:href="#m9ebb1e0749" y="248.589474"/>
     <use style="fill:#ff0000;stroke:#000000;stroke-width:0.5;" x="311.150714" xlink:href="#m9ebb1e0749" y="272.976842"/>
     <use style="fill:#ff0000;stroke:#000000;stroke-width:0.5;" x="314.237031" xlink:href="#m9ebb1e0749" y="227.250526"/>
     <use style="fill:#ff0000;stroke:#000000;stroke-width:0.5;" x="317.323348" xlink:href="#m9ebb1e0749" y="207.435789"/>
     <use style="fill:#ff0000;stroke:#000000;stroke-width:0.5;" x="320.409665" xlink:href="#m9ebb1e0749" y="215.056842"/>
     <use style="fill:#ff0000;stroke:#000000;stroke-width:0.5;" x="323.495982" xlink:href="#m9ebb1e0749" y="221.153684"/>
     <use style="fill:#ff0000;stroke:#000000;stroke-width:0.5;" x="326.582299" xlink:href="#m9ebb1e0749" y="221.153684"/>
     <use style="fill:#ff0000;stroke:#000000;stroke-width:0.5;" x="329.668616" xlink:href="#m9ebb1e0749" y="210.484211"/>
     <use style="fill:#ff0000;stroke:#000000;stroke-width:0.5;" x="332.754933" xlink:href="#m9ebb1e0749" y="208.96"/>
     <use style="fill:#ff0000;stroke:#000000;stroke-width:0.5;" x="335.84125" xlink:href="#m9ebb1e0749" y="262.307368"/>
     <use style="fill:#ff0000;stroke:#000000;stroke-width:0.5;" x="338.927567" xlink:href="#m9ebb1e0749" y="253.162105"/>
     <use style="fill:#ff0000;stroke:#000000;stroke-width:0.5;" x="342.013884" xlink:href="#m9ebb1e0749" y="234.871579"/>
     <use style="fill:#ff0000;stroke:#000000;stroke-width:0.5;" x="345.100201" xlink:href="#m9ebb1e0749" y="228.774737"/>
     <use style="fill:#ff0000;stroke:#000000;stroke-width:0.5;" x="348.186518" xlink:href="#m9ebb1e0749" y="242.492632"/>
     <use style="fill:#ff0000;stroke:#000000;stroke-width:0.5;" x="351.272835" xlink:href="#m9ebb1e0749" y="234.871579"/>
     <use style="fill:#ff0000;stroke:#000000;stroke-width:0.5;" x="354.359152" xlink:href="#m9ebb1e0749" y="237.92"/>
     <use style="fill:#ff0000;stroke:#000000;stroke-width:0.5;" x="357.445469" xlink:href="#m9ebb1e0749" y="257.734737"/>
     <use style="fill:#ff0000;stroke:#000000;stroke-width:0.5;" x="360.531786" xlink:href="#m9ebb1e0749" y="262.307368"/>
     <use style="fill:#ff0000;stroke:#000000;stroke-width:0.5;" x="363.618103" xlink:href="#m9ebb1e0749" y="218.105263"/>
     <use style="fill:#ff0000;stroke:#000000;stroke-width:0.5;" x="366.70442" xlink:href="#m9ebb1e0749" y="263.831579"/>
     <use style="fill:#ff0000;stroke:#000000;stroke-width:0.5;" x="369.790737" xlink:href="#m9ebb1e0749" y="242.492632"/>
     <use style="fill:#ff0000;stroke:#000000;stroke-width:0.5;" x="372.877054" xlink:href="#m9ebb1e0749" y="266.88"/>
     <use style="fill:#ff0000;stroke:#000000;stroke-width:0.5;" x="375.963371" xlink:href="#m9ebb1e0749" y="216.581053"/>
     <use style="fill:#ff0000;stroke:#000000;stroke-width:0.5;" x="379.049687" xlink:href="#m9ebb1e0749" y="230.298947"/>
     <use style="fill:#ff0000;stroke:#000000;stroke-width:0.5;" x="382.136004" xlink:href="#m9ebb1e0749" y="221.153684"/>
     <use style="fill:#ff0000;stroke:#000000;stroke-width:0.5;" x="385.222321" xlink:href="#m9ebb1e0749" y="208.96"/>
     <use style="fill:#ff0000;stroke:#000000;stroke-width:0.5;" x="388.308638" xlink:href="#m9ebb1e0749" y="175.427368"/>
     <use style="fill:#ff0000;stroke:#000000;stroke-width:0.5;" x="391.394955" xlink:href="#m9ebb1e0749" y="225.726316"/>
     <use style="fill:#ff0000;stroke:#000000;stroke-width:0.5;" x="394.481272" xlink:href="#m9ebb1e0749" y="193.717895"/>
     <use style="fill:#ff0000;stroke:#000000;stroke-width:0.5;" x="397.567589" xlink:href="#m9ebb1e0749" y="227.250526"/>
     <use style="fill:#ff0000;stroke:#000000;stroke-width:0.5;" x="400.653906" xlink:href="#m9ebb1e0749" y="234.871579"/>
     <use style="fill:#ff0000;stroke:#000000;stroke-width:0.5;" x="403.740223" xlink:href="#m9ebb1e0749" y="215.056842"/>
     <use style="fill:#ff0000;stroke:#000000;stroke-width:0.5;" x="406.82654" xlink:href="#m9ebb1e0749" y="193.717895"/>
     <use style="fill:#ff0000;stroke:#000000;stroke-width:0.5;" x="409.912857" xlink:href="#m9ebb1e0749" y="175.427368"/>
     <use style="fill:#ff0000;stroke:#000000;stroke-width:0.5;" x="412.999174" xlink:href="#m9ebb1e0749" y="189.145263"/>
     <use style="fill:#ff0000;stroke:#000000;stroke-width:0.5;" x="416.085491" xlink:href="#m9ebb1e0749" y="155.612632"/>
     <use style="fill:#ff0000;stroke:#000000;stroke-width:0.5;" x="419.171808" xlink:href="#m9ebb1e0749" y="170.854737"/>
     <use style="fill:#ff0000;stroke:#000000;stroke-width:0.5;" x="422.258125" xlink:href="#m9ebb1e0749" y="215.056842"/>
     <use style="fill:#ff0000;stroke:#000000;stroke-width:0.5;" x="425.344442" xlink:href="#m9ebb1e0749" y="204.387368"/>
     <use style="fill:#ff0000;stroke:#000000;stroke-width:0.5;" x="428.430759" xlink:href="#m9ebb1e0749" y="178.475789"/>
     <use style="fill:#ff0000;stroke:#000000;stroke-width:0.5;" x="431.517076" xlink:href="#m9ebb1e0749" y="144.943158"/>
     <use style="fill:#ff0000;stroke:#000000;stroke-width:0.5;" x="434.603393" xlink:href="#m9ebb1e0749" y="190.669474"/>
     <use style="fill:#ff0000;stroke:#000000;stroke-width:0.5;" x="437.68971" xlink:href="#m9ebb1e0749" y="152.564211"/>
     <use style="fill:#ff0000;stroke:#000000;stroke-width:0.5;" x="440.776027" xlink:href="#m9ebb1e0749" y="123.604211"/>
     <use style="fill:#ff0000;stroke:#000000;stroke-width:0.5;" x="443.862344" xlink:href="#m9ebb1e0749" y="158.661053"/>
     <use style="fill:#ff0000;stroke:#000000;stroke-width:0.5;" x="446.948661" xlink:href="#m9ebb1e0749" y="157.136842"/>
     <use style="fill:#ff0000;stroke:#000000;stroke-width:0.5;" x="450.034978" xlink:href="#m9ebb1e0749" y="137.322105"/>
     <use style="fill:#ff0000;stroke:#000000;stroke-width:0.5;" x="453.121295" xlink:href="#m9ebb1e0749" y="125.128421"/>
     <use style="fill:#ff0000;stroke:#000000;stroke-width:0.5;" x="456.207612" xlink:href="#m9ebb1e0749" y="122.08"/>
     <use style="fill:#ff0000;stroke:#000000;stroke-width:0.5;" x="459.293929" xlink:href="#m9ebb1e0749" y="131.225263"/>
     <use style="fill:#ff0000;stroke:#000000;stroke-width:0.5;" x="462.380246" xlink:href="#m9ebb1e0749" y="106.837895"/>
     <use style="fill:#ff0000;stroke:#000000;stroke-width:0.5;" x="465.466562" xlink:href="#m9ebb1e0749" y="114.458947"/>
     <use style="fill:#ff0000;stroke:#000000;stroke-width:0.5;" x="468.552879" xlink:href="#m9ebb1e0749" y="109.886316"/>
     <use style="fill:#ff0000;stroke:#000000;stroke-width:0.5;" x="471.639196" xlink:href="#m9ebb1e0749" y="135.797895"/>
     <use style="fill:#ff0000;stroke:#000000;stroke-width:0.5;" x="474.725513" xlink:href="#m9ebb1e0749" y="126.652632"/>
     <use style="fill:#ff0000;stroke:#000000;stroke-width:0.5;" x="477.81183" xlink:href="#m9ebb1e0749" y="102.265263"/>
     <use style="fill:#ff0000;stroke:#000000;stroke-width:0.5;" x="480.898147" xlink:href="#m9ebb1e0749" y="126.652632"/>
     <use style="fill:#ff0000;stroke:#000000;stroke-width:0.5;" x="483.984464" xlink:href="#m9ebb1e0749" y="117.507368"/>
     <use style="fill:#ff0000;stroke:#000000;stroke-width:0.5;" x="487.070781" xlink:href="#m9ebb1e0749" y="119.031579"/>
     <use style="fill:#ff0000;stroke:#000000;stroke-width:0.5;" x="490.157098" xlink:href="#m9ebb1e0749" y="96.168421"/>
     <use style="fill:#ff0000;stroke:#000000;stroke-width:0.5;" x="493.243415" xlink:href="#m9ebb1e0749" y="61.111579"/>
     <use style="fill:#ff0000;stroke:#000000;stroke-width:0.5;" x="496.329732" xlink:href="#m9ebb1e0749" y="39.772632"/>
     <use style="fill:#ff0000;stroke:#000000;stroke-width:0.5;" x="499.416049" xlink:href="#m9ebb1e0749" y="64.16"/>
     <use style="fill:#ff0000;stroke:#000000;stroke-width:0.5;" x="502.502366" xlink:href="#m9ebb1e0749" y="82.450526"/>
    </g>
   </g>
   <g id="line2d_4">
    <path clip-path="url(#p36e2ed4143)" d="M 76.590625 240.968421  L 79.676942 234.871579  L 82.763259 233.347368  L 85.849576 242.492632  L 88.935893 256.210526  L 92.02221 268.404211  L 95.108527 268.404211  L 98.194844 277.549474  L 101.281161 254.686316  L 104.367478 240.968421  L 107.453795 283.646316  L 110.540112 265.355789  L 113.626429 257.734737  L 116.712746 262.307368  L 119.799062 269.928421  L 122.885379 257.734737  L 125.971696 237.92  L 129.058013 242.492632  L 132.14433 274.501053  L 135.230647 256.210526  L 138.316964 247.065263  L 141.403281 263.831579  L 144.489598 271.452632  L 147.575915 292.791579  L 150.662232 306.509474  L 153.748549 271.452632  L 156.834866 266.88  L 159.921183 282.122105  L 163.0075 295.84  L 166.093817 306.509474  L 169.180134 298.888421  L 172.266451 303.461053  L 175.352768 271.452632  L 178.439085 272.976842  L 181.525402 250.113684  L 184.611719 251.637895  L 187.698036 279.073684  L 190.784353 285.170526  L 193.87067 262.307368  L 196.956987 262.307368  L 200.043304 269.928421  L 203.129621 274.501053  L 206.215937 277.549474  L 209.302254 277.549474  L 212.388571 286.694737  L 215.474888 279.073684  L 218.561205 263.831579  L 221.647522 277.549474  L 224.733839 276.025263  L 227.820156 289.743158  L 230.906473 277.549474  L 233.99279 268.404211  L 240.165424 283.646316  L 243.251741 274.501053  L 246.338058 280.597895  L 249.424375 276.025263  L 252.510692 262.307368  L 255.597009 263.831579  L 258.683326 254.686316  L 261.769643 221.153684  L 264.85596 208.96  L 267.942277 231.823158  L 271.028594 234.871579  L 274.114911 210.484211  L 277.201228 219.629474  L 280.287545 259.258947  L 283.373862 254.686316  L 286.460179 263.831579  L 289.546496 262.307368  L 292.632812 265.355789  L 295.719129 260.783158  L 298.805446 239.444211  L 301.891763 247.065263  L 304.97808 271.452632  L 308.064397 263.831579  L 311.150714 257.734737  L 314.237031 225.726316  L 317.323348 237.92  L 320.409665 242.492632  L 323.495982 251.637895  L 326.582299 228.774737  L 329.668616 245.541053  L 332.754933 236.395789  L 335.84125 263.831579  L 338.927567 245.541053  L 345.100201 245.541053  L 348.186518 247.065263  L 351.272835 210.484211  L 354.359152 218.105263  L 357.445469 237.92  L 360.531786 199.814737  L 363.618103 199.814737  L 366.70442 228.774737  L 369.790737 230.298947  L 372.877054 233.347368  L 375.963371 198.290526  L 379.049687 216.581053  L 382.136004 196.766316  L 385.222321 175.427368  L 388.308638 193.717895  L 391.394955 199.814737  L 394.481272 176.951579  L 397.567589 190.669474  L 400.653906 196.766316  L 403.740223 196.766316  L 406.82654 170.854737  L 409.912857 167.806316  L 412.999174 189.145263  L 416.085491 176.951579  L 419.171808 170.854737  L 422.258125 184.572632  L 428.430759 193.717895  L 431.517076 186.096842  L 434.603393 173.903158  L 437.68971 170.854737  L 440.776027 154.088421  L 443.862344 187.621053  L 446.948661 187.621053  L 450.034978 166.282105  L 453.121295 151.04  L 456.207612 157.136842  L 459.293929 170.854737  L 462.380246 155.612632  L 465.466562 164.757895  L 468.552879 164.757895  L 471.639196 173.903158  L 474.725513 146.467368  L 477.81183 152.564211  L 480.898147 164.757895  L 483.984464 161.709474  L 487.070781 151.04  L 490.157098 147.991579  L 493.243415 140.370526  L 496.329732 125.128421  L 499.416049 129.701053  L 502.502366 132.749474  L 502.502366 132.749474  " style="fill:none;stroke:#0000ff;stroke-linecap:square;stroke-width:0.5;"/>
    <defs>
     <path d="M 0 2  C 0.530406 2 1.03916 1.789267 1.414214 1.414214  C 1.789267 1.03916 2 0.530406 2 0  C 2 -0.530406 1.789267 -1.03916 1.414214 -1.414214  C 1.03916 -1.789267 0.530406 -2 0 -2  C -0.530406 -2 -1.03916 -1.789267 -1.414214 -1.414214  C -1.789267 -1.03916 -2 -0.530406 -2 0  C -2 0.530406 -1.789267 1.03916 -1.414214 1.414214  C -1.03916 1.789267 -0.530406 2 0 2  z " id="m18e9c7cbc9" style="stroke:#000000;stroke-width:0.5;"/>
    </defs>
    <g clip-path="url(#p36e2ed4143)">
     <use style="fill:#0000ff;stroke:#000000;stroke-width:0.5;" x="76.590625" xlink:href="#m18e9c7cbc9" y="240.968421"/>
     <use style="fill:#0000ff;stroke:#000000;stroke-width:0.5;" x="79.676942" xlink:href="#m18e9c7cbc9" y="234.871579"/>
     <use style="fill:#0000ff;stroke:#000000;stroke-width:0.5;" x="82.763259" xlink:href="#m18e9c7cbc9" y="233.347368"/>
     <use style="fill:#0000ff;stroke:#000000;stroke-width:0.5;" x="85.849576" xlink:href="#m18e9c7cbc9" y="242.492632"/>
     <use style="fill:#0000ff;stroke:#000000;stroke-width:0.5;" x="88.935893" xlink:href="#m18e9c7cbc9" y="256.210526"/>
     <use style="fill:#0000ff;stroke:#000000;stroke-width:0.5;" x="92.02221" xlink:href="#m18e9c7cbc9" y="268.404211"/>
     <use style="fill:#0000ff;stroke:#000000;stroke-width:0.5;" x="95.108527" xlink:href="#m18e9c7cbc9" y="268.404211"/>
     <use style="fill:#0000ff;stroke:#000000;stroke-width:0.5;" x="98.194844" xlink:href="#m18e9c7cbc9" y="277.549474"/>
     <use style="fill:#0000ff;stroke:#000000;stroke-width:0.5;" x="101.281161" xlink:href="#m18e9c7cbc9" y="254.686316"/>
     <use style="fill:#0000ff;stroke:#000000;stroke-width:0.5;" x="104.367478" xlink:href="#m18e9c7cbc9" y="240.968421"/>
     <use style="fill:#0000ff;stroke:#000000;stroke-width:0.5;" x="107.453795" xlink:href="#m18e9c7cbc9" y="283.646316"/>
     <use style="fill:#0000ff;stroke:#000000;stroke-width:0.5;" x="110.540112" xlink:href="#m18e9c7cbc9" y="265.355789"/>
     <use style="fill:#0000ff;stroke:#000000;stroke-width:0.5;" x="113.626429" xlink:href="#m18e9c7cbc9" y="257.734737"/>
     <use style="fill:#0000ff;stroke:#000000;stroke-width:0.5;" x="116.712746" xlink:href="#m18e9c7cbc9" y="262.307368"/>
     <use style="fill:#0000ff;stroke:#000000;stroke-width:0.5;" x="119.799062" xlink:href="#m18e9c7cbc9" y="269.928421"/>
     <use style="fill:#0000ff;stroke:#000000;stroke-width:0.5;" x="122.885379" xlink:href="#m18e9c7cbc9" y="257.734737"/>
     <use style="fill:#0000ff;stroke:#000000;stroke-width:0.5;" x="125.971696" xlink:href="#m18e9c7cbc9" y="237.92"/>
     <use style="fill:#0000ff;stroke:#000000;stroke-width:0.5;" x="129.058013" xlink:href="#m18e9c7cbc9" y="242.492632"/>
     <use style="fill:#0000ff;stroke:#000000;stroke-width:0.5;" x="132.14433" xlink:href="#m18e9c7cbc9" y="274.501053"/>
     <use style="fill:#0000ff;stroke:#000000;stroke-width:0.5;" x="135.230647" xlink:href="#m18e9c7cbc9" y="256.210526"/>
     <use style="fill:#0000ff;stroke:#000000;stroke-width:0.5;" x="138.316964" xlink:href="#m18e9c7cbc9" y="247.065263"/>
     <use style="fill:#0000ff;stroke:#000000;stroke-width:0.5;" x="141.403281" xlink:href="#m18e9c7cbc9" y="263.831579"/>
     <use style="fill:#0000ff;stroke:#000000;stroke-width:0.5;" x="144.489598" xlink:href="#m18e9c7cbc9" y="271.452632"/>
     <use style="fill:#0000ff;stroke:#000000;stroke-width:0.5;" x="147.575915" xlink:href="#m18e9c7cbc9" y="292.791579"/>
     <use style="fill:#0000ff;stroke:#000000;stroke-width:0.5;" x="150.662232" xlink:href="#m18e9c7cbc9" y="306.509474"/>
     <use style="fill:#0000ff;stroke:#000000;stroke-width:0.5;" x="153.748549" xlink:href="#m18e9c7cbc9" y="271.452632"/>
     <use style="fill:#0000ff;stroke:#000000;stroke-width:0.5;" x="156.834866" xlink:href="#m18e9c7cbc9" y="266.88"/>
     <use style="fill:#0000ff;stroke:#000000;stroke-width:0.5;" x="159.921183" xlink:href="#m18e9c7cbc9" y="282.122105"/>
     <use style="fill:#0000ff;stroke:#000000;stroke-width:0.5;" x="163.0075" xlink:href="#m18e9c7cbc9" y="295.84"/>
     <use style="fill:#0000ff;stroke:#000000;stroke-width:0.5;" x="166.093817" xlink:href="#m18e9c7cbc9" y="306.509474"/>
     <use style="fill:#0000ff;stroke:#000000;stroke-width:0.5;" x="169.180134" xlink:href="#m18e9c7cbc9" y="298.888421"/>
     <use style="fill:#0000ff;stroke:#000000;stroke-width:0.5;" x="172.266451" xlink:href="#m18e9c7cbc9" y="303.461053"/>
     <use style="fill:#0000ff;stroke:#000000;stroke-width:0.5;" x="175.352768" xlink:href="#m18e9c7cbc9" y="271.452632"/>
     <use style="fill:#0000ff;stroke:#000000;stroke-width:0.5;" x="178.439085" xlink:href="#m18e9c7cbc9" y="272.976842"/>
     <use style="fill:#0000ff;stroke:#000000;stroke-width:0.5;" x="181.525402" xlink:href="#m18e9c7cbc9" y="250.113684"/>
     <use style="fill:#0000ff;stroke:#000000;stroke-width:0.5;" x="184.611719" xlink:href="#m18e9c7cbc9" y="251.637895"/>
     <use style="fill:#0000ff;stroke:#000000;stroke-width:0.5;" x="187.698036" xlink:href="#m18e9c7cbc9" y="279.073684"/>
     <use style="fill:#0000ff;stroke:#000000;stroke-width:0.5;" x="190.784353" xlink:href="#m18e9c7cbc9" y="285.170526"/>
     <use style="fill:#0000ff;stroke:#000000;stroke-width:0.5;" x="193.87067" xlink:href="#m18e9c7cbc9" y="262.307368"/>
     <use style="fill:#0000ff;stroke:#000000;stroke-width:0.5;" x="196.956987" xlink:href="#m18e9c7cbc9" y="262.307368"/>
     <use style="fill:#0000ff;stroke:#000000;stroke-width:0.5;" x="200.043304" xlink:href="#m18e9c7cbc9" y="269.928421"/>
     <use style="fill:#0000ff;stroke:#000000;stroke-width:0.5;" x="203.129621" xlink:href="#m18e9c7cbc9" y="274.501053"/>
     <use style="fill:#0000ff;stroke:#000000;stroke-width:0.5;" x="206.215937" xlink:href="#m18e9c7cbc9" y="277.549474"/>
     <use style="fill:#0000ff;stroke:#000000;stroke-width:0.5;" x="209.302254" xlink:href="#m18e9c7cbc9" y="277.549474"/>
     <use style="fill:#0000ff;stroke:#000000;stroke-width:0.5;" x="212.388571" xlink:href="#m18e9c7cbc9" y="286.694737"/>
     <use style="fill:#0000ff;stroke:#000000;stroke-width:0.5;" x="215.474888" xlink:href="#m18e9c7cbc9" y="279.073684"/>
     <use style="fill:#0000ff;stroke:#000000;stroke-width:0.5;" x="218.561205" xlink:href="#m18e9c7cbc9" y="263.831579"/>
     <use style="fill:#0000ff;stroke:#000000;stroke-width:0.5;" x="221.647522" xlink:href="#m18e9c7cbc9" y="277.549474"/>
     <use style="fill:#0000ff;stroke:#000000;stroke-width:0.5;" x="224.733839" xlink:href="#m18e9c7cbc9" y="276.025263"/>
     <use style="fill:#0000ff;stroke:#000000;stroke-width:0.5;" x="227.820156" xlink:href="#m18e9c7cbc9" y="289.743158"/>
     <use style="fill:#0000ff;stroke:#000000;stroke-width:0.5;" x="230.906473" xlink:href="#m18e9c7cbc9" y="277.549474"/>
     <use style="fill:#0000ff;stroke:#000000;stroke-width:0.5;" x="233.99279" xlink:href="#m18e9c7cbc9" y="268.404211"/>
     <use style="fill:#0000ff;stroke:#000000;stroke-width:0.5;" x="237.079107" xlink:href="#m18e9c7cbc9" y="276.025263"/>
     <use style="fill:#0000ff;stroke:#000000;stroke-width:0.5;" x="240.165424" xlink:href="#m18e9c7cbc9" y="283.646316"/>
     <use style="fill:#0000ff;stroke:#000000;stroke-width:0.5;" x="243.251741" xlink:href="#m18e9c7cbc9" y="274.501053"/>
     <use style="fill:#0000ff;stroke:#000000;stroke-width:0.5;" x="246.338058" xlink:href="#m18e9c7cbc9" y="280.597895"/>
     <use style="fill:#0000ff;stroke:#000000;stroke-width:0.5;" x="249.424375" xlink:href="#m18e9c7cbc9" y="276.025263"/>
     <use style="fill:#0000ff;stroke:#000000;stroke-width:0.5;" x="252.510692" xlink:href="#m18e9c7cbc9" y="262.307368"/>
     <use style="fill:#0000ff;stroke:#000000;stroke-width:0.5;" x="255.597009" xlink:href="#m18e9c7cbc9" y="263.831579"/>
     <use style="fill:#0000ff;stroke:#000000;stroke-width:0.5;" x="258.683326" xlink:href="#m18e9c7cbc9" y="254.686316"/>
     <use style="fill:#0000ff;stroke:#000000;stroke-width:0.5;" x="261.769643" xlink:href="#m18e9c7cbc9" y="221.153684"/>
     <use style="fill:#0000ff;stroke:#000000;stroke-width:0.5;" x="264.85596" xlink:href="#m18e9c7cbc9" y="208.96"/>
     <use style="fill:#0000ff;stroke:#000000;stroke-width:0.5;" x="267.942277" xlink:href="#m18e9c7cbc9" y="231.823158"/>
     <use style="fill:#0000ff;stroke:#000000;stroke-width:0.5;" x="271.028594" xlink:href="#m18e9c7cbc9" y="234.871579"/>
     <use style="fill:#0000ff;stroke:#000000;stroke-width:0.5;" x="274.114911" xlink:href="#m18e9c7cbc9" y="210.484211"/>
     <use style="fill:#0000ff;stroke:#000000;stroke-width:0.5;" x="277.201228" xlink:href="#m18e9c7cbc9" y="219.629474"/>
     <use style="fill:#0000ff;stroke:#000000;stroke-width:0.5;" x="280.287545" xlink:href="#m18e9c7cbc9" y="259.258947"/>
     <use style="fill:#0000ff;stroke:#000000;stroke-width:0.5;" x="283.373862" xlink:href="#m18e9c7cbc9" y="254.686316"/>
     <use style="fill:#0000ff;stroke:#000000;stroke-width:0.5;" x="286.460179" xlink:href="#m18e9c7cbc9" y="263.831579"/>
     <use style="fill:#0000ff;stroke:#000000;stroke-width:0.5;" x="289.546496" xlink:href="#m18e9c7cbc9" y="262.307368"/>
     <use style="fill:#0000ff;stroke:#000000;stroke-width:0.5;" x="292.632812" xlink:href="#m18e9c7cbc9" y="265.355789"/>
     <use style="fill:#0000ff;stroke:#000000;stroke-width:0.5;" x="295.719129" xlink:href="#m18e9c7cbc9" y="260.783158"/>
     <use style="fill:#0000ff;stroke:#000000;stroke-width:0.5;" x="298.805446" xlink:href="#m18e9c7cbc9" y="239.444211"/>
     <use style="fill:#0000ff;stroke:#000000;stroke-width:0.5;" x="301.891763" xlink:href="#m18e9c7cbc9" y="247.065263"/>
     <use style="fill:#0000ff;stroke:#000000;stroke-width:0.5;" x="304.97808" xlink:href="#m18e9c7cbc9" y="271.452632"/>
     <use style="fill:#0000ff;stroke:#000000;stroke-width:0.5;" x="308.064397" xlink:href="#m18e9c7cbc9" y="263.831579"/>
     <use style="fill:#0000ff;stroke:#000000;stroke-width:0.5;" x="311.150714" xlink:href="#m18e9c7cbc9" y="257.734737"/>
     <use style="fill:#0000ff;stroke:#000000;stroke-width:0.5;" x="314.237031" xlink:href="#m18e9c7cbc9" y="225.726316"/>
     <use style="fill:#0000ff;stroke:#000000;stroke-width:0.5;" x="317.323348" xlink:href="#m18e9c7cbc9" y="237.92"/>
     <use style="fill:#0000ff;stroke:#000000;stroke-width:0.5;" x="320.409665" xlink:href="#m18e9c7cbc9" y="242.492632"/>
     <use style="fill:#0000ff;stroke:#000000;stroke-width:0.5;" x="323.495982" xlink:href="#m18e9c7cbc9" y="251.637895"/>
     <use style="fill:#0000ff;stroke:#000000;stroke-width:0.5;" x="326.582299" xlink:href="#m18e9c7cbc9" y="228.774737"/>
     <use style="fill:#0000ff;stroke:#000000;stroke-width:0.5;" x="329.668616" xlink:href="#m18e9c7cbc9" y="245.541053"/>
     <use style="fill:#0000ff;stroke:#000000;stroke-width:0.5;" x="332.754933" xlink:href="#m18e9c7cbc9" y="236.395789"/>
     <use style="fill:#0000ff;stroke:#000000;stroke-width:0.5;" x="335.84125" xlink:href="#m18e9c7cbc9" y="263.831579"/>
     <use style="fill:#0000ff;stroke:#000000;stroke-width:0.5;" x="338.927567" xlink:href="#m18e9c7cbc9" y="245.541053"/>
     <use style="fill:#0000ff;stroke:#000000;stroke-width:0.5;" x="342.013884" xlink:href="#m18e9c7cbc9" y="245.541053"/>
     <use style="fill:#0000ff;stroke:#000000;stroke-width:0.5;" x="345.100201" xlink:href="#m18e9c7cbc9" y="245.541053"/>
     <use style="fill:#0000ff;stroke:#000000;stroke-width:0.5;" x="348.186518" xlink:href="#m18e9c7cbc9" y="247.065263"/>
     <use style="fill:#0000ff;stroke:#000000;stroke-width:0.5;" x="351.272835" xlink:href="#m18e9c7cbc9" y="210.484211"/>
     <use style="fill:#0000ff;stroke:#000000;stroke-width:0.5;" x="354.359152" xlink:href="#m18e9c7cbc9" y="218.105263"/>
     <use style="fill:#0000ff;stroke:#000000;stroke-width:0.5;" x="357.445469" xlink:href="#m18e9c7cbc9" y="237.92"/>
     <use style="fill:#0000ff;stroke:#000000;stroke-width:0.5;" x="360.531786" xlink:href="#m18e9c7cbc9" y="199.814737"/>
     <use style="fill:#0000ff;stroke:#000000;stroke-width:0.5;" x="363.618103" xlink:href="#m18e9c7cbc9" y="199.814737"/>
     <use style="fill:#0000ff;stroke:#000000;stroke-width:0.5;" x="366.70442" xlink:href="#m18e9c7cbc9" y="228.774737"/>
     <use style="fill:#0000ff;stroke:#000000;stroke-width:0.5;" x="369.790737" xlink:href="#m18e9c7cbc9" y="230.298947"/>
     <use style="fill:#0000ff;stroke:#000000;stroke-width:0.5;" x="372.877054" xlink:href="#m18e9c7cbc9" y="233.347368"/>
     <use style="fill:#0000ff;stroke:#000000;stroke-width:0.5;" x="375.963371" xlink:href="#m18e9c7cbc9" y="198.290526"/>
     <use style="fill:#0000ff;stroke:#000000;stroke-width:0.5;" x="379.049687" xlink:href="#m18e9c7cbc9" y="216.581053"/>
     <use style="fill:#0000ff;stroke:#000000;stroke-width:0.5;" x="382.136004" xlink:href="#m18e9c7cbc9" y="196.766316"/>
     <use style="fill:#0000ff;stroke:#000000;stroke-width:0.5;" x="385.222321" xlink:href="#m18e9c7cbc9" y="175.427368"/>
     <use style="fill:#0000ff;stroke:#000000;stroke-width:0.5;" x="388.308638" xlink:href="#m18e9c7cbc9" y="193.717895"/>
     <use style="fill:#0000ff;stroke:#000000;stroke-width:0.5;" x="391.394955" xlink:href="#m18e9c7cbc9" y="199.814737"/>
     <use style="fill:#0000ff;stroke:#000000;stroke-width:0.5;" x="394.481272" xlink:href="#m18e9c7cbc9" y="176.951579"/>
     <use style="fill:#0000ff;stroke:#000000;stroke-width:0.5;" x="397.567589" xlink:href="#m18e9c7cbc9" y="190.669474"/>
     <use style="fill:#0000ff;stroke:#000000;stroke-width:0.5;" x="400.653906" xlink:href="#m18e9c7cbc9" y="196.766316"/>
     <use style="fill:#0000ff;stroke:#000000;stroke-width:0.5;" x="403.740223" xlink:href="#m18e9c7cbc9" y="196.766316"/>
     <use style="fill:#0000ff;stroke:#000000;stroke-width:0.5;" x="406.82654" xlink:href="#m18e9c7cbc9" y="170.854737"/>
     <use style="fill:#0000ff;stroke:#000000;stroke-width:0.5;" x="409.912857" xlink:href="#m18e9c7cbc9" y="167.806316"/>
     <use style="fill:#0000ff;stroke:#000000;stroke-width:0.5;" x="412.999174" xlink:href="#m18e9c7cbc9" y="189.145263"/>
     <use style="fill:#0000ff;stroke:#000000;stroke-width:0.5;" x="416.085491" xlink:href="#m18e9c7cbc9" y="176.951579"/>
     <use style="fill:#0000ff;stroke:#000000;stroke-width:0.5;" x="419.171808" xlink:href="#m18e9c7cbc9" y="170.854737"/>
     <use style="fill:#0000ff;stroke:#000000;stroke-width:0.5;" x="422.258125" xlink:href="#m18e9c7cbc9" y="184.572632"/>
     <use style="fill:#0000ff;stroke:#000000;stroke-width:0.5;" x="425.344442" xlink:href="#m18e9c7cbc9" y="189.145263"/>
     <use style="fill:#0000ff;stroke:#000000;stroke-width:0.5;" x="428.430759" xlink:href="#m18e9c7cbc9" y="193.717895"/>
     <use style="fill:#0000ff;stroke:#000000;stroke-width:0.5;" x="431.517076" xlink:href="#m18e9c7cbc9" y="186.096842"/>
     <use style="fill:#0000ff;stroke:#000000;stroke-width:0.5;" x="434.603393" xlink:href="#m18e9c7cbc9" y="173.903158"/>
     <use style="fill:#0000ff;stroke:#000000;stroke-width:0.5;" x="437.68971" xlink:href="#m18e9c7cbc9" y="170.854737"/>
     <use style="fill:#0000ff;stroke:#000000;stroke-width:0.5;" x="440.776027" xlink:href="#m18e9c7cbc9" y="154.088421"/>
     <use style="fill:#0000ff;stroke:#000000;stroke-width:0.5;" x="443.862344" xlink:href="#m18e9c7cbc9" y="187.621053"/>
     <use style="fill:#0000ff;stroke:#000000;stroke-width:0.5;" x="446.948661" xlink:href="#m18e9c7cbc9" y="187.621053"/>
     <use style="fill:#0000ff;stroke:#000000;stroke-width:0.5;" x="450.034978" xlink:href="#m18e9c7cbc9" y="166.282105"/>
     <use style="fill:#0000ff;stroke:#000000;stroke-width:0.5;" x="453.121295" xlink:href="#m18e9c7cbc9" y="151.04"/>
     <use style="fill:#0000ff;stroke:#000000;stroke-width:0.5;" x="456.207612" xlink:href="#m18e9c7cbc9" y="157.136842"/>
     <use style="fill:#0000ff;stroke:#000000;stroke-width:0.5;" x="459.293929" xlink:href="#m18e9c7cbc9" y="170.854737"/>
     <use style="fill:#0000ff;stroke:#000000;stroke-width:0.5;" x="462.380246" xlink:href="#m18e9c7cbc9" y="155.612632"/>
     <use style="fill:#0000ff;stroke:#000000;stroke-width:0.5;" x="465.466562" xlink:href="#m18e9c7cbc9" y="164.757895"/>
     <use style="fill:#0000ff;stroke:#000000;stroke-width:0.5;" x="468.552879" xlink:href="#m18e9c7cbc9" y="164.757895"/>
     <use style="fill:#0000ff;stroke:#000000;stroke-width:0.5;" x="471.639196" xlink:href="#m18e9c7cbc9" y="173.903158"/>
     <use style="fill:#0000ff;stroke:#000000;stroke-width:0.5;" x="474.725513" xlink:href="#m18e9c7cbc9" y="146.467368"/>
     <use style="fill:#0000ff;stroke:#000000;stroke-width:0.5;" x="477.81183" xlink:href="#m18e9c7cbc9" y="152.564211"/>
     <use style="fill:#0000ff;stroke:#000000;stroke-width:0.5;" x="480.898147" xlink:href="#m18e9c7cbc9" y="164.757895"/>
     <use style="fill:#0000ff;stroke:#000000;stroke-width:0.5;" x="483.984464" xlink:href="#m18e9c7cbc9" y="161.709474"/>
     <use style="fill:#0000ff;stroke:#000000;stroke-width:0.5;" x="487.070781" xlink:href="#m18e9c7cbc9" y="151.04"/>
     <use style="fill:#0000ff;stroke:#000000;stroke-width:0.5;" x="490.157098" xlink:href="#m18e9c7cbc9" y="147.991579"/>
     <use style="fill:#0000ff;stroke:#000000;stroke-width:0.5;" x="493.243415" xlink:href="#m18e9c7cbc9" y="140.370526"/>
     <use style="fill:#0000ff;stroke:#000000;stroke-width:0.5;" x="496.329732" xlink:href="#m18e9c7cbc9" y="125.128421"/>
     <use style="fill:#0000ff;stroke:#000000;stroke-width:0.5;" x="499.416049" xlink:href="#m18e9c7cbc9" y="129.701053"/>
     <use style="fill:#0000ff;stroke:#000000;stroke-width:0.5;" x="502.502366" xlink:href="#m18e9c7cbc9" y="132.749474"/>
    </g>
   </g>
   <g id="patch_3">
    <path d="M 76.590625 324.8  L 76.590625 35.2  " style="fill:none;stroke:#000000;stroke-linecap:square;stroke-linejoin:miter;"/>
   </g>
   <g id="patch_4">
    <path d="M 508.675 324.8  L 508.675 35.2  " style="fill:none;stroke:#000000;stroke-linecap:square;stroke-linejoin:miter;"/>
   </g>
   <g id="patch_5">
    <path d="M 76.590625 324.8  L 508.675 324.8  " style="fill:none;stroke:#000000;stroke-linecap:square;stroke-linejoin:miter;"/>
   </g>
   <g id="patch_6">
    <path d="M 76.590625 35.2  L 508.675 35.2  " style="fill:none;stroke:#000000;stroke-linecap:square;stroke-linejoin:miter;"/>
   </g>
   <g id="matplotlib.axis_1">
    <g id="xtick_1">
     <g id="line2d_5">
      <path clip-path="url(#p36e2ed4143)" d="M 76.590625 324.8  L 76.590625 35.2  " style="fill:none;stroke:#000000;stroke-dasharray:1,3;stroke-dashoffset:0;stroke-width:0.5;"/>
     </g>
     <g id="line2d_6">
      <defs>
       <path d="M 0 0  L 0 -4  " id="m6134ba8525" style="stroke:#000000;stroke-width:0.5;"/>
      </defs>
      <g>
       <use style="stroke:#000000;stroke-width:0.5;" x="76.590625" xlink:href="#m6134ba8525" y="324.8"/>
      </g>
     </g>
     <g id="line2d_7">
      <defs>
       <path d="M 0 0  L 0 4  " id="me3b39d5255" style="stroke:#000000;stroke-width:0.5;"/>
      </defs>
      <g>
       <use style="stroke:#000000;stroke-width:0.5;" x="76.590625" xlink:href="#me3b39d5255" y="35.2"/>
      </g>
     </g>
     <g id="text_1">
      <!-- 1880 -->
      <defs>
       <path d="M 12.40625 8.296875  L 28.515625 8.296875  L 28.515625 63.921875  L 10.984375 60.40625  L 10.984375 69.390625  L 28.421875 72.90625  L 38.28125 72.90625  L 38.28125 8.296875  L 54.390625 8.296875  L 54.390625 0  L 12.40625 0  z " id="DejaVuSans-31"/>
       <path d="M 31.78125 34.625  Q 24.75 34.625 20.71875 30.859375  Q 16.703125 27.09375 16.703125 20.515625  Q 16.703125 13.921875 20.71875 10.15625  Q 24.75 6.390625 31.78125 6.390625  Q 38.8125 6.390625 42.859375 10.171875  Q 46.921875 13.96875 46.921875 20.515625  Q 46.921875 27.09375 42.890625 30.859375  Q 38.875 34.625 31.78125 34.625  z M 21.921875 38.8125  Q 15.578125 40.375 12.03125 44.71875  Q 8.5 49.078125 8.5 55.328125  Q 8.5 64.0625 14.71875 69.140625  Q 20.953125 74.21875 31.78125 74.21875  Q 42.671875 74.21875 48.875 69.140625  Q 55.078125 64.0625 55.078125 55.328125  Q 55.078125 49.078125 51.53125 44.71875  Q 48 40.375 41.703125 38.8125  Q 48.828125 37.15625 52.796875 32.3125  Q 56.78125 27.484375 56.78125 20.515625  Q 56.78125 9.90625 50.3125 4.234375  Q 43.84375 -1.421875 31.78125 -1.421875  Q 19.734375 -1.421875 13.25 4.234375  Q 6.78125 9.90625 6.78125 20.515625  Q 6.78125 27.484375 10.78125 32.3125  Q 14.796875 37.15625 21.921875 38.8125  z M 18.3125 54.390625  Q 18.3125 48.734375 21.84375 45.5625  Q 25.390625 42.390625 31.78125 42.390625  Q 38.140625 42.390625 41.71875 45.5625  Q 45.3125 48.734375 45.3125 54.390625  Q 45.3125 60.0625 41.71875 63.234375  Q 38.140625 66.40625 31.78125 66.40625  Q 25.390625 66.40625 21.84375 63.234375  Q 18.3125 60.0625 18.3125 54.390625  z " id="DejaVuSans-38"/>
       <path d="M 31.78125 66.40625  Q 24.171875 66.40625 20.328125 58.90625  Q 16.5 51.421875 16.5 36.375  Q 16.5 21.390625 20.328125 13.890625  Q 24.171875 6.390625 31.78125 6.390625  Q 39.453125 6.390625 43.28125 13.890625  Q 47.125 21.390625 47.125 36.375  Q 47.125 51.421875 43.28125 58.90625  Q 39.453125 66.40625 31.78125 66.40625  z M 31.78125 74.21875  Q 44.046875 74.21875 50.515625 64.515625  Q 56.984375 54.828125 56.984375 36.375  Q 56.984375 17.96875 50.515625 8.265625  Q 44.046875 -1.421875 31.78125 -1.421875  Q 19.53125 -1.421875 13.0625 8.265625  Q 6.59375 17.96875 6.59375 36.375  Q 6.59375 54.828125 13.0625 64.515625  Q 19.53125 74.21875 31.78125 74.21875  z " id="DejaVuSans-30"/>
      </defs>
      <g transform="translate(57.503125 340.197656)scale(0.15 -0.15)">
       <use xlink:href="#DejaVuSans-31"/>
       <use x="63.623047" xlink:href="#DejaVuSans-38"/>
       <use x="127.246094" xlink:href="#DejaVuSans-38"/>
       <use x="190.869141" xlink:href="#DejaVuSans-30"/>
      </g>
     </g>
    </g>
    <g id="xtick_2">
     <g id="line2d_8">
      <path clip-path="url(#p36e2ed4143)" d="M 138.316964 324.8  L 138.316964 35.2  " style="fill:none;stroke:#000000;stroke-dasharray:1,3;stroke-dashoffset:0;stroke-width:0.5;"/>
     </g>
     <g id="line2d_9">
      <g>
       <use style="stroke:#000000;stroke-width:0.5;" x="138.316964" xlink:href="#m6134ba8525" y="324.8"/>
      </g>
     </g>
     <g id="line2d_10">
      <g>
       <use style="stroke:#000000;stroke-width:0.5;" x="138.316964" xlink:href="#me3b39d5255" y="35.2"/>
      </g>
     </g>
     <g id="text_2">
      <!-- 1900 -->
      <defs>
       <path d="M 10.984375 1.515625  L 10.984375 10.5  Q 14.703125 8.734375 18.5 7.8125  Q 22.3125 6.890625 25.984375 6.890625  Q 35.75 6.890625 40.890625 13.453125  Q 46.046875 20.015625 46.78125 33.40625  Q 43.953125 29.203125 39.59375 26.953125  Q 35.25 24.703125 29.984375 24.703125  Q 19.046875 24.703125 12.671875 31.3125  Q 6.296875 37.9375 6.296875 49.421875  Q 6.296875 60.640625 12.9375 67.421875  Q 19.578125 74.21875 30.609375 74.21875  Q 43.265625 74.21875 49.921875 64.515625  Q 56.59375 54.828125 56.59375 36.375  Q 56.59375 19.140625 48.40625 8.859375  Q 40.234375 -1.421875 26.421875 -1.421875  Q 22.703125 -1.421875 18.890625 -0.6875  Q 15.09375 0.046875 10.984375 1.515625  z M 30.609375 32.421875  Q 37.25 32.421875 41.125 36.953125  Q 45.015625 41.5 45.015625 49.421875  Q 45.015625 57.28125 41.125 61.84375  Q 37.25 66.40625 30.609375 66.40625  Q 23.96875 66.40625 20.09375 61.84375  Q 16.21875 57.28125 16.21875 49.421875  Q 16.21875 41.5 20.09375 36.953125  Q 23.96875 32.421875 30.609375 32.421875  z " id="DejaVuSans-39"/>
      </defs>
      <g transform="translate(119.229464 340.197656)scale(0.15 -0.15)">
       <use xlink:href="#DejaVuSans-31"/>
       <use x="63.623047" xlink:href="#DejaVuSans-39"/>
       <use x="127.246094" xlink:href="#DejaVuSans-30"/>
       <use x="190.869141" xlink:href="#DejaVuSans-30"/>
      </g>
     </g>
    </g>
    <g id="xtick_3">
     <g id="line2d_11">
      <path clip-path="url(#p36e2ed4143)" d="M 200.043304 324.8  L 200.043304 35.2  " style="fill:none;stroke:#000000;stroke-dasharray:1,3;stroke-dashoffset:0;stroke-width:0.5;"/>
     </g>
     <g id="line2d_12">
      <g>
       <use style="stroke:#000000;stroke-width:0.5;" x="200.043304" xlink:href="#m6134ba8525" y="324.8"/>
      </g>
     </g>
     <g id="line2d_13">
      <g>
       <use style="stroke:#000000;stroke-width:0.5;" x="200.043304" xlink:href="#me3b39d5255" y="35.2"/>
      </g>
     </g>
     <g id="text_3">
      <!-- 1920 -->
      <defs>
       <path d="M 19.1875 8.296875  L 53.609375 8.296875  L 53.609375 0  L 7.328125 0  L 7.328125 8.296875  Q 12.9375 14.109375 22.625 23.890625  Q 32.328125 33.6875 34.8125 36.53125  Q 39.546875 41.84375 41.421875 45.53125  Q 43.3125 49.21875 43.3125 52.78125  Q 43.3125 58.59375 39.234375 62.25  Q 35.15625 65.921875 28.609375 65.921875  Q 23.96875 65.921875 18.8125 64.3125  Q 13.671875 62.703125 7.8125 59.421875  L 7.8125 69.390625  Q 13.765625 71.78125 18.9375 73  Q 24.125 74.21875 28.421875 74.21875  Q 39.75 74.21875 46.484375 68.546875  Q 53.21875 62.890625 53.21875 53.421875  Q 53.21875 48.921875 51.53125 44.890625  Q 49.859375 40.875 45.40625 35.40625  Q 44.1875 33.984375 37.640625 27.21875  Q 31.109375 20.453125 19.1875 8.296875  z " id="DejaVuSans-32"/>
      </defs>
      <g transform="translate(180.955804 340.197656)scale(0.15 -0.15)">
       <use xlink:href="#DejaVuSans-31"/>
       <use x="63.623047" xlink:href="#DejaVuSans-39"/>
       <use x="127.246094" xlink:href="#DejaVuSans-32"/>
       <use x="190.869141" xlink:href="#DejaVuSans-30"/>
      </g>
     </g>
    </g>
    <g id="xtick_4">
     <g id="line2d_14">
      <path clip-path="url(#p36e2ed4143)" d="M 261.769643 324.8  L 261.769643 35.2  " style="fill:none;stroke:#000000;stroke-dasharray:1,3;stroke-dashoffset:0;stroke-width:0.5;"/>
     </g>
     <g id="line2d_15">
      <g>
       <use style="stroke:#000000;stroke-width:0.5;" x="261.769643" xlink:href="#m6134ba8525" y="324.8"/>
      </g>
     </g>
     <g id="line2d_16">
      <g>
       <use style="stroke:#000000;stroke-width:0.5;" x="261.769643" xlink:href="#me3b39d5255" y="35.2"/>
      </g>
     </g>
     <g id="text_4">
      <!-- 1940 -->
      <defs>
       <path d="M 37.796875 64.3125  L 12.890625 25.390625  L 37.796875 25.390625  z M 35.203125 72.90625  L 47.609375 72.90625  L 47.609375 25.390625  L 58.015625 25.390625  L 58.015625 17.1875  L 47.609375 17.1875  L 47.609375 0  L 37.796875 0  L 37.796875 17.1875  L 4.890625 17.1875  L 4.890625 26.703125  z " id="DejaVuSans-34"/>
      </defs>
      <g transform="translate(242.682143 340.197656)scale(0.15 -0.15)">
       <use xlink:href="#DejaVuSans-31"/>
       <use x="63.623047" xlink:href="#DejaVuSans-39"/>
       <use x="127.246094" xlink:href="#DejaVuSans-34"/>
       <use x="190.869141" xlink:href="#DejaVuSans-30"/>
      </g>
     </g>
    </g>
    <g id="xtick_5">
     <g id="line2d_17">
      <path clip-path="url(#p36e2ed4143)" d="M 323.495982 324.8  L 323.495982 35.2  " style="fill:none;stroke:#000000;stroke-dasharray:1,3;stroke-dashoffset:0;stroke-width:0.5;"/>
     </g>
     <g id="line2d_18">
      <g>
       <use style="stroke:#000000;stroke-width:0.5;" x="323.495982" xlink:href="#m6134ba8525" y="324.8"/>
      </g>
     </g>
     <g id="line2d_19">
      <g>
       <use style="stroke:#000000;stroke-width:0.5;" x="323.495982" xlink:href="#me3b39d5255" y="35.2"/>
      </g>
     </g>
     <g id="text_5">
      <!-- 1960 -->
      <defs>
       <path d="M 33.015625 40.375  Q 26.375 40.375 22.484375 35.828125  Q 18.609375 31.296875 18.609375 23.390625  Q 18.609375 15.53125 22.484375 10.953125  Q 26.375 6.390625 33.015625 6.390625  Q 39.65625 6.390625 43.53125 10.953125  Q 47.40625 15.53125 47.40625 23.390625  Q 47.40625 31.296875 43.53125 35.828125  Q 39.65625 40.375 33.015625 40.375  z M 52.59375 71.296875  L 52.59375 62.3125  Q 48.875 64.0625 45.09375 64.984375  Q 41.3125 65.921875 37.59375 65.921875  Q 27.828125 65.921875 22.671875 59.328125  Q 17.53125 52.734375 16.796875 39.40625  Q 19.671875 43.65625 24.015625 45.921875  Q 28.375 48.1875 33.59375 48.1875  Q 44.578125 48.1875 50.953125 41.515625  Q 57.328125 34.859375 57.328125 23.390625  Q 57.328125 12.15625 50.6875 5.359375  Q 44.046875 -1.421875 33.015625 -1.421875  Q 20.359375 -1.421875 13.671875 8.265625  Q 6.984375 17.96875 6.984375 36.375  Q 6.984375 53.65625 15.1875 63.9375  Q 23.390625 74.21875 37.203125 74.21875  Q 40.921875 74.21875 44.703125 73.484375  Q 48.484375 72.75 52.59375 71.296875  z " id="DejaVuSans-36"/>
      </defs>
      <g transform="translate(304.408482 340.197656)scale(0.15 -0.15)">
       <use xlink:href="#DejaVuSans-31"/>
       <use x="63.623047" xlink:href="#DejaVuSans-39"/>
       <use x="127.246094" xlink:href="#DejaVuSans-36"/>
       <use x="190.869141" xlink:href="#DejaVuSans-30"/>
      </g>
     </g>
    </g>
    <g id="xtick_6">
     <g id="line2d_20">
      <path clip-path="url(#p36e2ed4143)" d="M 385.222321 324.8  L 385.222321 35.2  " style="fill:none;stroke:#000000;stroke-dasharray:1,3;stroke-dashoffset:0;stroke-width:0.5;"/>
     </g>
     <g id="line2d_21">
      <g>
       <use style="stroke:#000000;stroke-width:0.5;" x="385.222321" xlink:href="#m6134ba8525" y="324.8"/>
      </g>
     </g>
     <g id="line2d_22">
      <g>
       <use style="stroke:#000000;stroke-width:0.5;" x="385.222321" xlink:href="#me3b39d5255" y="35.2"/>
      </g>
     </g>
     <g id="text_6">
      <!-- 1980 -->
      <g transform="translate(366.134821 340.197656)scale(0.15 -0.15)">
       <use xlink:href="#DejaVuSans-31"/>
       <use x="63.623047" xlink:href="#DejaVuSans-39"/>
       <use x="127.246094" xlink:href="#DejaVuSans-38"/>
       <use x="190.869141" xlink:href="#DejaVuSans-30"/>
      </g>
     </g>
    </g>
    <g id="xtick_7">
     <g id="line2d_23">
      <path clip-path="url(#p36e2ed4143)" d="M 446.948661 324.8  L 446.948661 35.2  " style="fill:none;stroke:#000000;stroke-dasharray:1,3;stroke-dashoffset:0;stroke-width:0.5;"/>
     </g>
     <g id="line2d_24">
      <g>
       <use style="stroke:#000000;stroke-width:0.5;" x="446.948661" xlink:href="#m6134ba8525" y="324.8"/>
      </g>
     </g>
     <g id="line2d_25">
      <g>
       <use style="stroke:#000000;stroke-width:0.5;" x="446.948661" xlink:href="#me3b39d5255" y="35.2"/>
      </g>
     </g>
     <g id="text_7">
      <!-- 2000 -->
      <g transform="translate(427.861161 340.197656)scale(0.15 -0.15)">
       <use xlink:href="#DejaVuSans-32"/>
       <use x="63.623047" xlink:href="#DejaVuSans-30"/>
       <use x="127.246094" xlink:href="#DejaVuSans-30"/>
       <use x="190.869141" xlink:href="#DejaVuSans-30"/>
      </g>
     </g>
    </g>
    <g id="xtick_8">
     <g id="line2d_26">
      <path clip-path="url(#p36e2ed4143)" d="M 508.675 324.8  L 508.675 35.2  " style="fill:none;stroke:#000000;stroke-dasharray:1,3;stroke-dashoffset:0;stroke-width:0.5;"/>
     </g>
     <g id="line2d_27">
      <g>
       <use style="stroke:#000000;stroke-width:0.5;" x="508.675" xlink:href="#m6134ba8525" y="324.8"/>
      </g>
     </g>
     <g id="line2d_28">
      <g>
       <use style="stroke:#000000;stroke-width:0.5;" x="508.675" xlink:href="#me3b39d5255" y="35.2"/>
      </g>
     </g>
     <g id="text_8">
      <!-- 2020 -->
      <g transform="translate(489.5875 340.197656)scale(0.15 -0.15)">
       <use xlink:href="#DejaVuSans-32"/>
       <use x="63.623047" xlink:href="#DejaVuSans-30"/>
       <use x="127.246094" xlink:href="#DejaVuSans-32"/>
       <use x="190.869141" xlink:href="#DejaVuSans-30"/>
      </g>
     </g>
    </g>
   </g>
   <g id="matplotlib.axis_2">
    <g id="ytick_1">
     <g id="line2d_29">
      <path clip-path="url(#p36e2ed4143)" d="M 76.590625 309.557895  L 508.675 309.557895  " style="fill:none;stroke:#000000;stroke-dasharray:1,3;stroke-dashoffset:0;stroke-width:0.5;"/>
     </g>
     <g id="line2d_30">
      <defs>
       <path d="M 0 0  L 4 0  " id="m75e37f63a6" style="stroke:#000000;stroke-width:0.5;"/>
      </defs>
      <g>
       <use style="stroke:#000000;stroke-width:0.5;" x="76.590625" xlink:href="#m75e37f63a6" y="309.557895"/>
      </g>
     </g>
     <g id="line2d_31">
      <defs>
       <path d="M 0 0  L -4 0  " id="md2382f5355" style="stroke:#000000;stroke-width:0.5;"/>
      </defs>
      <g>
       <use style="stroke:#000000;stroke-width:0.5;" x="508.675" xlink:href="#md2382f5355" y="309.557895"/>
      </g>
     </g>
     <g id="text_9">
      <!-- 0.5 -->
      <defs>
       <path d="M 10.59375 35.5  L 73.1875 35.5  L 73.1875 27.203125  L 10.59375 27.203125  z " id="DejaVuSans-2212"/>
       <path d="M 10.6875 12.40625  L 21 12.40625  L 21 0  L 10.6875 0  z " id="DejaVuSans-2e"/>
       <path d="M 10.796875 72.90625  L 49.515625 72.90625  L 49.515625 64.59375  L 19.828125 64.59375  L 19.828125 46.734375  Q 21.96875 47.46875 24.109375 47.828125  Q 26.265625 48.1875 28.421875 48.1875  Q 40.625 48.1875 47.75 41.5  Q 54.890625 34.8125 54.890625 23.390625  Q 54.890625 11.625 47.5625 5.09375  Q 40.234375 -1.421875 26.90625 -1.421875  Q 22.3125 -1.421875 17.546875 -0.640625  Q 12.796875 0.140625 7.71875 1.703125  L 7.71875 11.625  Q 12.109375 9.234375 16.796875 8.0625  Q 21.484375 6.890625 26.703125 6.890625  Q 35.15625 6.890625 40.078125 11.328125  Q 45.015625 15.765625 45.015625 23.390625  Q 45.015625 31 40.078125 35.4375  Q 35.15625 39.890625 26.703125 39.890625  Q 22.75 39.890625 18.8125 39.015625  Q 14.890625 38.140625 10.796875 36.28125  z " id="DejaVuSans-35"/>
      </defs>
      <g transform="translate(36.166406 313.696957)scale(0.15 -0.15)">
       <use xlink:href="#DejaVuSans-2212"/>
       <use x="83.789062" xlink:href="#DejaVuSans-30"/>
       <use x="147.412109" xlink:href="#DejaVuSans-2e"/>
       <use x="179.199219" xlink:href="#DejaVuSans-35"/>
      </g>
     </g>
    </g>
    <g id="ytick_2">
     <g id="line2d_32">
      <path clip-path="url(#p36e2ed4143)" d="M 76.590625 233.347368  L 508.675 233.347368  " style="fill:none;stroke:#000000;stroke-dasharray:1,3;stroke-dashoffset:0;stroke-width:0.5;"/>
     </g>
     <g id="line2d_33">
      <g>
       <use style="stroke:#000000;stroke-width:0.5;" x="76.590625" xlink:href="#m75e37f63a6" y="233.347368"/>
      </g>
     </g>
     <g id="line2d_34">
      <g>
       <use style="stroke:#000000;stroke-width:0.5;" x="508.675" xlink:href="#md2382f5355" y="233.347368"/>
      </g>
     </g>
     <g id="text_10">
      <!-- 0.0 -->
      <g transform="translate(48.735938 237.486431)scale(0.15 -0.15)">
       <use xlink:href="#DejaVuSans-30"/>
       <use x="63.623047" xlink:href="#DejaVuSans-2e"/>
       <use x="95.410156" xlink:href="#DejaVuSans-30"/>
      </g>
     </g>
    </g>
    <g id="ytick_3">
     <g id="line2d_35">
      <path clip-path="url(#p36e2ed4143)" d="M 76.590625 157.136842  L 508.675 157.136842  " style="fill:none;stroke:#000000;stroke-dasharray:1,3;stroke-dashoffset:0;stroke-width:0.5;"/>
     </g>
     <g id="line2d_36">
      <g>
       <use style="stroke:#000000;stroke-width:0.5;" x="76.590625" xlink:href="#m75e37f63a6" y="157.136842"/>
      </g>
     </g>
     <g id="line2d_37">
      <g>
       <use style="stroke:#000000;stroke-width:0.5;" x="508.675" xlink:href="#md2382f5355" y="157.136842"/>
      </g>
     </g>
     <g id="text_11">
      <!-- 0.5 -->
      <g transform="translate(48.735938 161.275905)scale(0.15 -0.15)">
       <use xlink:href="#DejaVuSans-30"/>
       <use x="63.623047" xlink:href="#DejaVuSans-2e"/>
       <use x="95.410156" xlink:href="#DejaVuSans-35"/>
      </g>
     </g>
    </g>
    <g id="ytick_4">
     <g id="line2d_38">
      <path clip-path="url(#p36e2ed4143)" d="M 76.590625 80.926316  L 508.675 80.926316  " style="fill:none;stroke:#000000;stroke-dasharray:1,3;stroke-dashoffset:0;stroke-width:0.5;"/>
     </g>
     <g id="line2d_39">
      <g>
       <use style="stroke:#000000;stroke-width:0.5;" x="76.590625" xlink:href="#m75e37f63a6" y="80.926316"/>
      </g>
     </g>
     <g id="line2d_40">
      <g>
       <use style="stroke:#000000;stroke-width:0.5;" x="508.675" xlink:href="#md2382f5355" y="80.926316"/>
      </g>
     </g>
     <g id="text_12">
      <!-- 1.0 -->
      <g transform="translate(48.735938 85.065378)scale(0.15 -0.15)">
       <use xlink:href="#DejaVuSans-31"/>
       <use x="63.623047" xlink:href="#DejaVuSans-2e"/>
       <use x="95.410156" xlink:href="#DejaVuSans-30"/>
      </g>
     </g>
    </g>
    <g id="text_13">
     <!-- Temperature Anomaly (C) -->
     <defs>
      <path d="M -0.296875 72.90625  L 61.375 72.90625  L 61.375 64.59375  L 35.5 64.59375  L 35.5 0  L 25.59375 0  L 25.59375 64.59375  L -0.296875 64.59375  z " id="DejaVuSans-54"/>
      <path d="M 56.203125 29.59375  L 56.203125 25.203125  L 14.890625 25.203125  Q 15.484375 15.921875 20.484375 11.0625  Q 25.484375 6.203125 34.421875 6.203125  Q 39.59375 6.203125 44.453125 7.46875  Q 49.3125 8.734375 54.109375 11.28125  L 54.109375 2.78125  Q 49.265625 0.734375 44.1875 -0.34375  Q 39.109375 -1.421875 33.890625 -1.421875  Q 20.796875 -1.421875 13.15625 6.1875  Q 5.515625 13.8125 5.515625 26.8125  Q 5.515625 40.234375 12.765625 48.109375  Q 20.015625 56 32.328125 56  Q 43.359375 56 49.78125 48.890625  Q 56.203125 41.796875 56.203125 29.59375  z M 47.21875 32.234375  Q 47.125 39.59375 43.09375 43.984375  Q 39.0625 48.390625 32.421875 48.390625  Q 24.90625 48.390625 20.390625 44.140625  Q 15.875 39.890625 15.1875 32.171875  z " id="DejaVuSans-65"/>
      <path d="M 52 44.1875  Q 55.375 50.25 60.0625 53.125  Q 64.75 56 71.09375 56  Q 79.640625 56 84.28125 50.015625  Q 88.921875 44.046875 88.921875 33.015625  L 88.921875 0  L 79.890625 0  L 79.890625 32.71875  Q 79.890625 40.578125 77.09375 44.375  Q 74.3125 48.1875 68.609375 48.1875  Q 61.625 48.1875 57.5625 43.546875  Q 53.515625 38.921875 53.515625 30.90625  L 53.515625 0  L 44.484375 0  L 44.484375 32.71875  Q 44.484375 40.625 41.703125 44.40625  Q 38.921875 48.1875 33.109375 48.1875  Q 26.21875 48.1875 22.15625 43.53125  Q 18.109375 38.875 18.109375 30.90625  L 18.109375 0  L 9.078125 0  L 9.078125 54.6875  L 18.109375 54.6875  L 18.109375 46.1875  Q 21.1875 51.21875 25.484375 53.609375  Q 29.78125 56 35.6875 56  Q 41.65625 56 45.828125 52.96875  Q 50 49.953125 52 44.1875  z " id="DejaVuSans-6d"/>
      <path d="M 18.109375 8.203125  L 18.109375 -20.796875  L 9.078125 -20.796875  L 9.078125 54.6875  L 18.109375 54.6875  L 18.109375 46.390625  Q 20.953125 51.265625 25.265625 53.625  Q 29.59375 56 35.59375 56  Q 45.5625 56 51.78125 48.09375  Q 58.015625 40.1875 58.015625 27.296875  Q 58.015625 14.40625 51.78125 6.484375  Q 45.5625 -1.421875 35.59375 -1.421875  Q 29.59375 -1.421875 25.265625 0.953125  Q 20.953125 3.328125 18.109375 8.203125  z M 48.6875 27.296875  Q 48.6875 37.203125 44.609375 42.84375  Q 40.53125 48.484375 33.40625 48.484375  Q 26.265625 48.484375 22.1875 42.84375  Q 18.109375 37.203125 18.109375 27.296875  Q 18.109375 17.390625 22.1875 11.75  Q 26.265625 6.109375 33.40625 6.109375  Q 40.53125 6.109375 44.609375 11.75  Q 48.6875 17.390625 48.6875 27.296875  z " id="DejaVuSans-70"/>
      <path d="M 41.109375 46.296875  Q 39.59375 47.171875 37.8125 47.578125  Q 36.03125 48 33.890625 48  Q 26.265625 48 22.1875 43.046875  Q 18.109375 38.09375 18.109375 28.8125  L 18.109375 0  L 9.078125 0  L 9.078125 54.6875  L 18.109375 54.6875  L 18.109375 46.1875  Q 20.953125 51.171875 25.484375 53.578125  Q 30.03125 56 36.53125 56  Q 37.453125 56 38.578125 55.875  Q 39.703125 55.765625 41.0625 55.515625  z " id="DejaVuSans-72"/>
      <path d="M 34.28125 27.484375  Q 23.390625 27.484375 19.1875 25  Q 14.984375 22.515625 14.984375 16.5  Q 14.984375 11.71875 18.140625 8.90625  Q 21.296875 6.109375 26.703125 6.109375  Q 34.1875 6.109375 38.703125 11.40625  Q 43.21875 16.703125 43.21875 25.484375  L 43.21875 27.484375  z M 52.203125 31.203125  L 52.203125 0  L 43.21875 0  L 43.21875 8.296875  Q 40.140625 3.328125 35.546875 0.953125  Q 30.953125 -1.421875 24.3125 -1.421875  Q 15.921875 -1.421875 10.953125 3.296875  Q 6 8.015625 6 15.921875  Q 6 25.140625 12.171875 29.828125  Q 18.359375 34.515625 30.609375 34.515625  L 43.21875 34.515625  L 43.21875 35.40625  Q 43.21875 41.609375 39.140625 45  Q 35.0625 48.390625 27.6875 48.390625  Q 23 48.390625 18.546875 47.265625  Q 14.109375 46.140625 10.015625 43.890625  L 10.015625 52.203125  Q 14.9375 54.109375 19.578125 55.046875  Q 24.21875 56 28.609375 56  Q 40.484375 56 46.34375 49.84375  Q 52.203125 43.703125 52.203125 31.203125  z " id="DejaVuSans-61"/>
      <path d="M 18.3125 70.21875  L 18.3125 54.6875  L 36.8125 54.6875  L 36.8125 47.703125  L 18.3125 47.703125  L 18.3125 18.015625  Q 18.3125 11.328125 20.140625 9.421875  Q 21.96875 7.515625 27.59375 7.515625  L 36.8125 7.515625  L 36.8125 0  L 27.59375 0  Q 17.1875 0 13.234375 3.875  Q 9.28125 7.765625 9.28125 18.015625  L 9.28125 47.703125  L 2.6875 47.703125  L 2.6875 54.6875  L 9.28125 54.6875  L 9.28125 70.21875  z " id="DejaVuSans-74"/>
      <path d="M 8.5 21.578125  L 8.5 54.6875  L 17.484375 54.6875  L 17.484375 21.921875  Q 17.484375 14.15625 20.5 10.265625  Q 23.53125 6.390625 29.59375 6.390625  Q 36.859375 6.390625 41.078125 11.03125  Q 45.3125 15.671875 45.3125 23.6875  L 45.3125 54.6875  L 54.296875 54.6875  L 54.296875 0  L 45.3125 0  L 45.3125 8.40625  Q 42.046875 3.421875 37.71875 1  Q 33.40625 -1.421875 27.6875 -1.421875  Q 18.265625 -1.421875 13.375 4.4375  Q 8.5 10.296875 8.5 21.578125  z M 31.109375 56  z " id="DejaVuSans-75"/>
      <path id="DejaVuSans-20"/>
      <path d="M 34.1875 63.1875  L 20.796875 26.90625  L 47.609375 26.90625  z M 28.609375 72.90625  L 39.796875 72.90625  L 67.578125 0  L 57.328125 0  L 50.6875 18.703125  L 17.828125 18.703125  L 11.1875 0  L 0.78125 0  z " id="DejaVuSans-41"/>
      <path d="M 54.890625 33.015625  L 54.890625 0  L 45.90625 0  L 45.90625 32.71875  Q 45.90625 40.484375 42.875 44.328125  Q 39.84375 48.1875 33.796875 48.1875  Q 26.515625 48.1875 22.3125 43.546875  Q 18.109375 38.921875 18.109375 30.90625  L 18.109375 0  L 9.078125 0  L 9.078125 54.6875  L 18.109375 54.6875  L 18.109375 46.1875  Q 21.34375 51.125 25.703125 53.5625  Q 30.078125 56 35.796875 56  Q 45.21875 56 50.046875 50.171875  Q 54.890625 44.34375 54.890625 33.015625  z " id="DejaVuSans-6e"/>
      <path d="M 30.609375 48.390625  Q 23.390625 48.390625 19.1875 42.75  Q 14.984375 37.109375 14.984375 27.296875  Q 14.984375 17.484375 19.15625 11.84375  Q 23.34375 6.203125 30.609375 6.203125  Q 37.796875 6.203125 41.984375 11.859375  Q 46.1875 17.53125 46.1875 27.296875  Q 46.1875 37.015625 41.984375 42.703125  Q 37.796875 48.390625 30.609375 48.390625  z M 30.609375 56  Q 42.328125 56 49.015625 48.375  Q 55.71875 40.765625 55.71875 27.296875  Q 55.71875 13.875 49.015625 6.21875  Q 42.328125 -1.421875 30.609375 -1.421875  Q 18.84375 -1.421875 12.171875 6.21875  Q 5.515625 13.875 5.515625 27.296875  Q 5.515625 40.765625 12.171875 48.375  Q 18.84375 56 30.609375 56  z " id="DejaVuSans-6f"/>
      <path d="M 9.421875 75.984375  L 18.40625 75.984375  L 18.40625 0  L 9.421875 0  z " id="DejaVuSans-6c"/>
      <path d="M 32.171875 -5.078125  Q 28.375 -14.84375 24.75 -17.8125  Q 21.140625 -20.796875 15.09375 -20.796875  L 7.90625 -20.796875  L 7.90625 -13.28125  L 13.1875 -13.28125  Q 16.890625 -13.28125 18.9375 -11.515625  Q 21 -9.765625 23.484375 -3.21875  L 25.09375 0.875  L 2.984375 54.6875  L 12.5 54.6875  L 29.59375 11.921875  L 46.6875 54.6875  L 56.203125 54.6875  z " id="DejaVuSans-79"/>
      <path d="M 31 75.875  Q 24.46875 64.65625 21.28125 53.65625  Q 18.109375 42.671875 18.109375 31.390625  Q 18.109375 20.125 21.3125 9.0625  Q 24.515625 -2 31 -13.1875  L 23.1875 -13.1875  Q 15.875 -1.703125 12.234375 9.375  Q 8.59375 20.453125 8.59375 31.390625  Q 8.59375 42.28125 12.203125 53.3125  Q 15.828125 64.359375 23.1875 75.875  z " id="DejaVuSans-28"/>
      <path d="M 25 67.921875  Q 21.09375 67.921875 18.40625 65.203125  Q 15.71875 62.5 15.71875 58.59375  Q 15.71875 54.734375 18.40625 52.078125  Q 21.09375 49.421875 25 49.421875  Q 28.90625 49.421875 31.59375 52.078125  Q 34.28125 54.734375 34.28125 58.59375  Q 34.28125 62.453125 31.5625 65.1875  Q 28.859375 67.921875 25 67.921875  z M 25 74.21875  Q 28.125 74.21875 31 73.015625  Q 33.890625 71.828125 35.984375 69.578125  Q 38.234375 67.390625 39.359375 64.59375  Q 40.484375 61.8125 40.484375 58.59375  Q 40.484375 52.15625 35.96875 47.6875  Q 31.453125 43.21875 24.90625 43.21875  Q 18.3125 43.21875 13.90625 47.609375  Q 9.515625 52 9.515625 58.59375  Q 9.515625 65.140625 14 69.671875  Q 18.5 74.21875 25 74.21875  z " id="DejaVuSans-b0"/>
      <path d="M 64.40625 67.28125  L 64.40625 56.890625  Q 59.421875 61.53125 53.78125 63.8125  Q 48.140625 66.109375 41.796875 66.109375  Q 29.296875 66.109375 22.65625 58.46875  Q 16.015625 50.828125 16.015625 36.375  Q 16.015625 21.96875 22.65625 14.328125  Q 29.296875 6.6875 41.796875 6.6875  Q 48.140625 6.6875 53.78125 8.984375  Q 59.421875 11.28125 64.40625 15.921875  L 64.40625 5.609375  Q 59.234375 2.09375 53.4375 0.328125  Q 47.65625 -1.421875 41.21875 -1.421875  Q 24.65625 -1.421875 15.125 8.703125  Q 5.609375 18.84375 5.609375 36.375  Q 5.609375 53.953125 15.125 64.078125  Q 24.65625 74.21875 41.21875 74.21875  Q 47.75 74.21875 53.53125 72.484375  Q 59.328125 70.75 64.40625 67.28125  z " id="DejaVuSans-43"/>
      <path d="M 8.015625 75.875  L 15.828125 75.875  Q 23.140625 64.359375 26.78125 53.3125  Q 30.421875 42.28125 30.421875 31.390625  Q 30.421875 20.453125 26.78125 9.375  Q 23.140625 -1.703125 15.828125 -13.1875  L 8.015625 -13.1875  Q 14.5 -2 17.703125 9.0625  Q 20.90625 20.125 20.90625 31.390625  Q 20.90625 42.671875 17.703125 53.65625  Q 14.5 64.65625 8.015625 75.875  z " id="DejaVuSans-29"/>
     </defs>
     <g transform="translate(28.046875 281.429297)rotate(-90)scale(0.15 -0.15)">
      <use xlink:href="#DejaVuSans-54"/>
      <use x="60.818359" xlink:href="#DejaVuSans-65"/>
      <use x="122.341797" xlink:href="#DejaVuSans-6d"/>
      <use x="219.753906" xlink:href="#DejaVuSans-70"/>
      <use x="283.230469" xlink:href="#DejaVuSans-65"/>
      <use x="344.753906" xlink:href="#DejaVuSans-72"/>
      <use x="385.867188" xlink:href="#DejaVuSans-61"/>
      <use x="447.146484" xlink:href="#DejaVuSans-74"/>
      <use x="486.355469" xlink:href="#DejaVuSans-75"/>
      <use x="549.734375" xlink:href="#DejaVuSans-72"/>
      <use x="590.816406" xlink:href="#DejaVuSans-65"/>
      <use x="652.339844" xlink:href="#DejaVuSans-20"/>
      <use x="684.126953" xlink:href="#DejaVuSans-41"/>
      <use x="752.535156" xlink:href="#DejaVuSans-6e"/>
      <use x="815.914062" xlink:href="#DejaVuSans-6f"/>
      <use x="877.095703" xlink:href="#DejaVuSans-6d"/>
      <use x="974.507812" xlink:href="#DejaVuSans-61"/>
      <use x="1035.787109" xlink:href="#DejaVuSans-6c"/>
      <use x="1063.570312" xlink:href="#DejaVuSans-79"/>
      <use x="1122.75" xlink:href="#DejaVuSans-20"/>
      <use x="1154.537109" xlink:href="#DejaVuSans-28"/>
      <use x="1193.550781" xlink:href="#DejaVuSans-b0"/>
      <use x="1243.550781" xlink:href="#DejaVuSans-43"/>
      <use x="1313.375" xlink:href="#DejaVuSans-29"/>
     </g>
    </g>
   </g>
   <g id="text_14">
    <!-- Hemispheric Temperature Change -->
    <defs>
     <path d="M 9.8125 72.90625  L 19.671875 72.90625  L 19.671875 43.015625  L 55.515625 43.015625  L 55.515625 72.90625  L 65.375 72.90625  L 65.375 0  L 55.515625 0  L 55.515625 34.71875  L 19.671875 34.71875  L 19.671875 0  L 9.8125 0  z " id="DejaVuSans-48"/>
     <path d="M 9.421875 54.6875  L 18.40625 54.6875  L 18.40625 0  L 9.421875 0  z M 9.421875 75.984375  L 18.40625 75.984375  L 18.40625 64.59375  L 9.421875 64.59375  z " id="DejaVuSans-69"/>
     <path d="M 44.28125 53.078125  L 44.28125 44.578125  Q 40.484375 46.53125 36.375 47.5  Q 32.28125 48.484375 27.875 48.484375  Q 21.1875 48.484375 17.84375 46.4375  Q 14.5 44.390625 14.5 40.28125  Q 14.5 37.15625 16.890625 35.375  Q 19.28125 33.59375 26.515625 31.984375  L 29.59375 31.296875  Q 39.15625 29.25 43.1875 25.515625  Q 47.21875 21.78125 47.21875 15.09375  Q 47.21875 7.46875 41.1875 3.015625  Q 35.15625 -1.421875 24.609375 -1.421875  Q 20.21875 -1.421875 15.453125 -0.5625  Q 10.6875 0.296875 5.421875 2  L 5.421875 11.28125  Q 10.40625 8.6875 15.234375 7.390625  Q 20.0625 6.109375 24.8125 6.109375  Q 31.15625 6.109375 34.5625 8.28125  Q 37.984375 10.453125 37.984375 14.40625  Q 37.984375 18.0625 35.515625 20.015625  Q 33.0625 21.96875 24.703125 23.78125  L 21.578125 24.515625  Q 13.234375 26.265625 9.515625 29.90625  Q 5.8125 33.546875 5.8125 39.890625  Q 5.8125 47.609375 11.28125 51.796875  Q 16.75 56 26.8125 56  Q 31.78125 56 36.171875 55.265625  Q 40.578125 54.546875 44.28125 53.078125  z " id="DejaVuSans-73"/>
     <path d="M 54.890625 33.015625  L 54.890625 0  L 45.90625 0  L 45.90625 32.71875  Q 45.90625 40.484375 42.875 44.328125  Q 39.84375 48.1875 33.796875 48.1875  Q 26.515625 48.1875 22.3125 43.546875  Q 18.109375 38.921875 18.109375 30.90625  L 18.109375 0  L 9.078125 0  L 9.078125 75.984375  L 18.109375 75.984375  L 18.109375 46.1875  Q 21.34375 51.125 25.703125 53.5625  Q 30.078125 56 35.796875 56  Q 45.21875 56 50.046875 50.171875  Q 54.890625 44.34375 54.890625 33.015625  z " id="DejaVuSans-68"/>
     <path d="M 48.78125 52.59375  L 48.78125 44.1875  Q 44.96875 46.296875 41.140625 47.34375  Q 37.3125 48.390625 33.40625 48.390625  Q 24.65625 48.390625 19.8125 42.84375  Q 14.984375 37.3125 14.984375 27.296875  Q 14.984375 17.28125 19.8125 11.734375  Q 24.65625 6.203125 33.40625 6.203125  Q 37.3125 6.203125 41.140625 7.25  Q 44.96875 8.296875 48.78125 10.40625  L 48.78125 2.09375  Q 45.015625 0.34375 40.984375 -0.53125  Q 36.96875 -1.421875 32.421875 -1.421875  Q 20.0625 -1.421875 12.78125 6.34375  Q 5.515625 14.109375 5.515625 27.296875  Q 5.515625 40.671875 12.859375 48.328125  Q 20.21875 56 33.015625 56  Q 37.15625 56 41.109375 55.140625  Q 45.0625 54.296875 48.78125 52.59375  z " id="DejaVuSans-63"/>
     <path d="M 45.40625 27.984375  Q 45.40625 37.75 41.375 43.109375  Q 37.359375 48.484375 30.078125 48.484375  Q 22.859375 48.484375 18.828125 43.109375  Q 14.796875 37.75 14.796875 27.984375  Q 14.796875 18.265625 18.828125 12.890625  Q 22.859375 7.515625 30.078125 7.515625  Q 37.359375 7.515625 41.375 12.890625  Q 45.40625 18.265625 45.40625 27.984375  z M 54.390625 6.78125  Q 54.390625 -7.171875 48.1875 -13.984375  Q 42 -20.796875 29.203125 -20.796875  Q 24.46875 -20.796875 20.265625 -20.09375  Q 16.0625 -19.390625 12.109375 -17.921875  L 12.109375 -9.1875  Q 16.0625 -11.328125 19.921875 -12.34375  Q 23.78125 -13.375 27.78125 -13.375  Q 36.625 -13.375 41.015625 -8.765625  Q 45.40625 -4.15625 45.40625 5.171875  L 45.40625 9.625  Q 42.625 4.78125 38.28125 2.390625  Q 33.9375 0 27.875 0  Q 17.828125 0 11.671875 7.65625  Q 5.515625 15.328125 5.515625 27.984375  Q 5.515625 40.671875 11.671875 48.328125  Q 17.828125 56 27.875 56  Q 33.9375 56 38.28125 53.609375  Q 42.625 51.21875 45.40625 46.390625  L 45.40625 54.6875  L 54.390625 54.6875  z " id="DejaVuSans-67"/>
    </defs>
    <g transform="translate(137.377187 30.2)scale(0.18 -0.18)">
     <use xlink:href="#DejaVuSans-48"/>
     <use x="75.195312" xlink:href="#DejaVuSans-65"/>
     <use x="136.71875" xlink:href="#DejaVuSans-6d"/>
     <use x="234.130859" xlink:href="#DejaVuSans-69"/>
     <use x="261.914062" xlink:href="#DejaVuSans-73"/>
     <use x="314.013672" xlink:href="#DejaVuSans-70"/>
     <use x="377.490234" xlink:href="#DejaVuSans-68"/>
     <use x="440.869141" xlink:href="#DejaVuSans-65"/>
     <use x="502.392578" xlink:href="#DejaVuSans-72"/>
     <use x="543.505859" xlink:href="#DejaVuSans-69"/>
     <use x="571.289062" xlink:href="#DejaVuSans-63"/>
     <use x="626.269531" xlink:href="#DejaVuSans-20"/>
     <use x="658.056641" xlink:href="#DejaVuSans-54"/>
     <use x="718.875" xlink:href="#DejaVuSans-65"/>
     <use x="780.398438" xlink:href="#DejaVuSans-6d"/>
     <use x="877.810547" xlink:href="#DejaVuSans-70"/>
     <use x="941.287109" xlink:href="#DejaVuSans-65"/>
     <use x="1002.810547" xlink:href="#DejaVuSans-72"/>
     <use x="1043.923828" xlink:href="#DejaVuSans-61"/>
     <use x="1105.203125" xlink:href="#DejaVuSans-74"/>
     <use x="1144.412109" xlink:href="#DejaVuSans-75"/>
     <use x="1207.791016" xlink:href="#DejaVuSans-72"/>
     <use x="1248.873047" xlink:href="#DejaVuSans-65"/>
     <use x="1310.396484" xlink:href="#DejaVuSans-20"/>
     <use x="1342.183594" xlink:href="#DejaVuSans-43"/>
     <use x="1412.007812" xlink:href="#DejaVuSans-68"/>
     <use x="1475.386719" xlink:href="#DejaVuSans-61"/>
     <use x="1536.666016" xlink:href="#DejaVuSans-6e"/>
     <use x="1600.044922" xlink:href="#DejaVuSans-67"/>
     <use x="1663.521484" xlink:href="#DejaVuSans-65"/>
    </g>
   </g>
   <g id="legend_1">
    <g id="patch_7">
     <path d="M 83.090625 121.92625  L 272.035469 121.92625  L 272.035469 41.7  L 83.090625 41.7  z " style="fill:#ffffff;stroke:#000000;stroke-linejoin:miter;"/>
    </g>
    <g id="line2d_41">
     <path d="M 92.190625 52.227969  L 110.390625 52.227969  " style="fill:none;stroke:#ff0000;stroke-linecap:square;stroke-width:0.5;"/>
    </g>
    <g id="line2d_42">
     <g>
      <use style="fill:#ff0000;stroke:#000000;stroke-width:0.5;" x="92.190625" xlink:href="#m9ebb1e0749" y="52.227969"/>
      <use style="fill:#ff0000;stroke:#000000;stroke-width:0.5;" x="110.390625" xlink:href="#m9ebb1e0749" y="52.227969"/>
     </g>
    </g>
    <g id="text_15">
     <!-- Northern Hemisphere -->
     <defs>
      <path d="M 9.8125 72.90625  L 23.09375 72.90625  L 55.421875 11.921875  L 55.421875 72.90625  L 64.984375 72.90625  L 64.984375 0  L 51.703125 0  L 19.390625 60.984375  L 19.390625 0  L 9.8125 0  z " id="DejaVuSans-4e"/>
     </defs>
     <g transform="translate(124.690625 56.777969)scale(0.13 -0.13)">
      <use xlink:href="#DejaVuSans-4e"/>
      <use x="74.804688" xlink:href="#DejaVuSans-6f"/>
      <use x="135.986328" xlink:href="#DejaVuSans-72"/>
      <use x="177.099609" xlink:href="#DejaVuSans-74"/>
      <use x="216.308594" xlink:href="#DejaVuSans-68"/>
      <use x="279.6875" xlink:href="#DejaVuSans-65"/>
      <use x="341.210938" xlink:href="#DejaVuSans-72"/>
      <use x="382.308594" xlink:href="#DejaVuSans-6e"/>
      <use x="445.6875" xlink:href="#DejaVuSans-20"/>
      <use x="477.474609" xlink:href="#DejaVuSans-48"/>
      <use x="552.669922" xlink:href="#DejaVuSans-65"/>
      <use x="614.193359" xlink:href="#DejaVuSans-6d"/>
      <use x="711.605469" xlink:href="#DejaVuSans-69"/>
      <use x="739.388672" xlink:href="#DejaVuSans-73"/>
      <use x="791.488281" xlink:href="#DejaVuSans-70"/>
      <use x="854.964844" xlink:href="#DejaVuSans-68"/>
      <use x="918.34375" xlink:href="#DejaVuSans-65"/>
      <use x="979.867188" xlink:href="#DejaVuSans-72"/>
      <use x="1020.949219" xlink:href="#DejaVuSans-65"/>
     </g>
    </g>
    <g id="line2d_43">
     <path d="M 92.190625 71.309531  L 110.390625 71.309531  " style="fill:none;stroke:#ff0000;stroke-linecap:square;stroke-width:2.5;"/>
    </g>
    <g id="line2d_44"/>
    <g id="text_16">
     <!-- 5 Year Mean -->
     <defs>
      <path d="M -0.203125 72.90625  L 10.40625 72.90625  L 30.609375 42.921875  L 50.6875 72.90625  L 61.28125 72.90625  L 35.5 34.71875  L 35.5 0  L 25.59375 0  L 25.59375 34.71875  z " id="DejaVuSans-59"/>
      <path d="M 9.8125 72.90625  L 24.515625 72.90625  L 43.109375 23.296875  L 61.8125 72.90625  L 76.515625 72.90625  L 76.515625 0  L 66.890625 0  L 66.890625 64.015625  L 48.09375 14.015625  L 38.1875 14.015625  L 19.390625 64.015625  L 19.390625 0  L 9.8125 0  z " id="DejaVuSans-4d"/>
     </defs>
     <g transform="translate(124.690625 75.859531)scale(0.13 -0.13)">
      <use xlink:href="#DejaVuSans-35"/>
      <use x="63.623047" xlink:href="#DejaVuSans-20"/>
      <use x="95.410156" xlink:href="#DejaVuSans-59"/>
      <use x="156.291016" xlink:href="#DejaVuSans-65"/>
      <use x="217.814453" xlink:href="#DejaVuSans-61"/>
      <use x="279.09375" xlink:href="#DejaVuSans-72"/>
      <use x="320.207031" xlink:href="#DejaVuSans-20"/>
      <use x="351.994141" xlink:href="#DejaVuSans-4d"/>
      <use x="438.273438" xlink:href="#DejaVuSans-65"/>
      <use x="499.796875" xlink:href="#DejaVuSans-61"/>
      <use x="561.076172" xlink:href="#DejaVuSans-6e"/>
     </g>
    </g>
    <g id="line2d_45">
     <path d="M 92.190625 90.391094  L 110.390625 90.391094  " style="fill:none;stroke:#0000ff;stroke-linecap:square;stroke-width:0.5;"/>
    </g>
    <g id="line2d_46">
     <g>
      <use style="fill:#0000ff;stroke:#000000;stroke-width:0.5;" x="92.190625" xlink:href="#m18e9c7cbc9" y="90.391094"/>
      <use style="fill:#0000ff;stroke:#000000;stroke-width:0.5;" x="110.390625" xlink:href="#m18e9c7cbc9" y="90.391094"/>
     </g>
    </g>
    <g id="text_17">
     <!-- Southern Hemisphere -->
     <defs>
      <path d="M 53.515625 70.515625  L 53.515625 60.890625  Q 47.90625 63.578125 42.921875 64.890625  Q 37.9375 66.21875 33.296875 66.21875  Q 25.25 66.21875 20.875 63.09375  Q 16.5 59.96875 16.5 54.203125  Q 16.5 49.359375 19.40625 46.890625  Q 22.3125 44.4375 30.421875 42.921875  L 36.375 41.703125  Q 47.40625 39.59375 52.65625 34.296875  Q 57.90625 29 57.90625 20.125  Q 57.90625 9.515625 50.796875 4.046875  Q 43.703125 -1.421875 29.984375 -1.421875  Q 24.8125 -1.421875 18.96875 -0.25  Q 13.140625 0.921875 6.890625 3.21875  L 6.890625 13.375  Q 12.890625 10.015625 18.65625 8.296875  Q 24.421875 6.59375 29.984375 6.59375  Q 38.421875 6.59375 43.015625 9.90625  Q 47.609375 13.234375 47.609375 19.390625  Q 47.609375 24.75 44.3125 27.78125  Q 41.015625 30.8125 33.5 32.328125  L 27.484375 33.5  Q 16.453125 35.6875 11.515625 40.375  Q 6.59375 45.0625 6.59375 53.421875  Q 6.59375 63.09375 13.40625 68.65625  Q 20.21875 74.21875 32.171875 74.21875  Q 37.3125 74.21875 42.625 73.28125  Q 47.953125 72.359375 53.515625 70.515625  z " id="DejaVuSans-53"/>
     </defs>
     <g transform="translate(124.690625 94.941094)scale(0.13 -0.13)">
      <use xlink:href="#DejaVuSans-53"/>
      <use x="63.476562" xlink:href="#DejaVuSans-6f"/>
      <use x="124.658203" xlink:href="#DejaVuSans-75"/>
      <use x="188.037109" xlink:href="#DejaVuSans-74"/>
      <use x="227.246094" xlink:href="#DejaVuSans-68"/>
      <use x="290.625" xlink:href="#DejaVuSans-65"/>
      <use x="352.148438" xlink:href="#DejaVuSans-72"/>
      <use x="393.246094" xlink:href="#DejaVuSans-6e"/>
      <use x="456.625" xlink:href="#DejaVuSans-20"/>
      <use x="488.412109" xlink:href="#DejaVuSans-48"/>
      <use x="563.607422" xlink:href="#DejaVuSans-65"/>
      <use x="625.130859" xlink:href="#DejaVuSans-6d"/>
      <use x="722.542969" xlink:href="#DejaVuSans-69"/>
      <use x="750.326172" xlink:href="#DejaVuSans-73"/>
      <use x="802.425781" xlink:href="#DejaVuSans-70"/>
      <use x="865.902344" xlink:href="#DejaVuSans-68"/>
      <use x="929.28125" xlink:href="#DejaVuSans-65"/>
      <use x="990.804688" xlink:href="#DejaVuSans-72"/>
      <use x="1031.886719" xlink:href="#DejaVuSans-65"/>
     </g>
    </g>
    <g id="line2d_47">
     <path d="M 92.190625 109.472656  L 110.390625 109.472656  " style="fill:none;stroke:#0000ff;stroke-linecap:square;stroke-width:2.5;"/>
    </g>
    <g id="line2d_48"/>
    <g id="text_18">
     <!-- 5 Year Mean -->
     <g transform="translate(124.690625 114.022656)scale(0.13 -0.13)">
      <use xlink:href="#DejaVuSans-35"/>
      <use x="63.623047" xlink:href="#DejaVuSans-20"/>
      <use x="95.410156" xlink:href="#DejaVuSans-59"/>
      <use x="156.291016" xlink:href="#DejaVuSans-65"/>
      <use x="217.814453" xlink:href="#DejaVuSans-61"/>
      <use x="279.09375" xlink:href="#DejaVuSans-72"/>
      <use x="320.207031" xlink:href="#DejaVuSans-20"/>
      <use x="351.994141" xlink:href="#DejaVuSans-4d"/>
      <use x="438.273438" xlink:href="#DejaVuSans-65"/>
      <use x="499.796875" xlink:href="#DejaVuSans-61"/>
      <use x="561.076172" xlink:href="#DejaVuSans-6e"/>
     </g>
    </g>
   </g>
  </g>
 </g>
 <defs>
  <clipPath id="p36e2ed4143">
   <rect height="289.6" width="432.084375" x="76.590625" y="35.2"/>
  </clipPath>
 </defs>
</svg>